<svg width="377" height="415" viewBox="0 0 377 415" fill="none" xmlns="http://www.w3.org/2000/svg">
<path fill-rule="evenodd" clip-rule="evenodd" d="M161.29 0.0616306C207.134 2.08041 233.735 85.4586 268.364 115.5C298.696 141.814 332.308 129.592 351.324 164.923C372.462 204.196 386.18 252.651 369.703 294.087C353.462 334.933 306.481 351.544 268.364 373.56C234.459 393.144 200.198 419.045 161.29 414.468C123.715 410.047 99.8002 374.97 71.1148 350.355C45.2304 328.144 11.7005 310.811 2.32227 278.059C-6.95065 245.674 13.9513 214.134 22.8029 181.632C32.2538 146.93 33.9791 110.291 55.806 81.674C83.4267 45.4605 115.723 -1.94494 161.29 0.0616306Z" fill="#E5E7E9"/>
</svg>
