<svg width="110" height="110" viewBox="0 0 110 110" fill="none" xmlns="http://www.w3.org/2000/svg">
<circle cx="5" cy="5" r="5" fill="#E5E7E9"/>
<circle cx="5" cy="25" r="5" fill="#E5E7E9"/>
<circle cx="5" cy="45" r="5" fill="#E5E7E9"/>
<circle cx="5" cy="65" r="5" fill="#E5E7E9"/>
<circle cx="5" cy="85" r="5" fill="#E5E7E9"/>
<circle cx="5" cy="105" r="5" fill="#E5E7E9"/>
<circle cx="30" cy="5" r="5" fill="#E5E7E9"/>
<circle cx="30" cy="25" r="5" fill="#E5E7E9"/>
<circle cx="30" cy="45" r="5" fill="#E5E7E9"/>
<circle cx="30" cy="65" r="5" fill="#E5E7E9"/>
<circle cx="30" cy="85" r="5" fill="#E5E7E9"/>
<circle cx="30" cy="105" r="5" fill="#E5E7E9"/>
<circle cx="55" cy="5" r="5" fill="#E5E7E9"/>
<circle cx="55" cy="25" r="5" fill="#E5E7E9"/>
<circle cx="55" cy="45" r="5" fill="#E5E7E9"/>
<circle cx="55" cy="65" r="5" fill="#E5E7E9"/>
<circle cx="55" cy="85" r="5" fill="#E5E7E9"/>
<circle cx="55" cy="105" r="5" fill="#E5E7E9"/>
<circle cx="80" cy="5" r="5" fill="#E5E7E9"/>
<circle cx="80" cy="25" r="5" fill="#E5E7E9"/>
<circle cx="80" cy="45" r="5" fill="#E5E7E9"/>
<circle cx="80" cy="65" r="5" fill="#E5E7E9"/>
<circle cx="80" cy="85" r="5" fill="#E5E7E9"/>
<circle cx="80" cy="105" r="5" fill="#E5E7E9"/>
<circle cx="105" cy="5" r="5" fill="#E5E7E9"/>
<circle cx="105" cy="25" r="5" fill="#E5E7E9"/>
<circle cx="105" cy="45" r="5" fill="#E5E7E9"/>
<circle cx="105" cy="65" r="5" fill="#E5E7E9"/>
<circle cx="105" cy="85" r="5" fill="#E5E7E9"/>
<circle cx="105" cy="105" r="5" fill="#E5E7E9"/>
</svg>
