<svg width="382" height="348" viewBox="0 0 382 348" fill="none" xmlns="http://www.w3.org/2000/svg">
<path fill-rule="evenodd" clip-rule="evenodd" d="M174 0.344773C220.447 2.39274 228.6 19.8555 263.683 50.3312C294.415 77.0259 336.72 89.8099 355.986 125.652C377.403 165.493 391.3 214.649 374.607 256.684C358.152 298.12 306.286 317.439 271.935 337.306C237.584 357.173 213.419 341.949 174 337.306C135.93 332.821 101.154 338.736 72.0916 313.766C45.8667 291.233 11.8958 273.649 2.39424 240.423C-7.00064 207.571 13.6748 170.961 22.6428 137.989C32.218 102.785 34.4674 70.2306 56.5814 41.1996C84.5654 4.46253 127.834 -1.69081 174 0.344773Z" fill="#E8F2FC"/>
<path d="M161.231 233.98V219.009H112.87V233.98C112.867 237.891 111.436 241.666 108.846 244.595C106.256 247.523 102.685 249.404 98.8059 249.881V250.013H175.296V249.881C171.416 249.405 167.844 247.526 165.254 244.597C162.663 241.668 161.232 237.892 161.231 233.98V233.98Z" fill="#3B94EC" stroke="black" stroke-width="3" stroke-linecap="round" stroke-linejoin="round"/>
<path d="M241.101 220.968C241.101 223.05 240.275 225.047 238.803 226.52C237.332 227.992 235.336 228.82 233.255 228.82H40.8464C38.7654 228.82 36.7696 227.992 35.2982 226.52C33.8267 225.047 33 223.05 33 220.968V114.737C33 112.654 33.8267 110.657 35.2982 109.185C36.7696 107.712 38.7654 106.885 40.8464 106.885H233.255C235.336 106.885 237.332 107.712 238.803 109.185C240.275 110.657 241.101 112.654 241.101 114.737V220.968Z" fill="#DDDDDD" stroke="black" stroke-width="3" stroke-linecap="round" stroke-linejoin="round"/>
<path d="M241.101 201.083C241.101 203.165 240.275 205.162 238.803 206.635C237.332 208.107 235.336 208.935 233.255 208.935H40.8464C38.7654 208.935 36.7696 208.107 35.2982 206.635C33.8267 205.162 33 203.165 33 201.083V94.8437C33.0022 92.7626 33.8298 90.7676 35.3011 89.2969C36.7723 87.8261 38.7668 87 40.8464 87H233.255C235.335 87 237.329 87.8261 238.8 89.2969C240.272 90.7676 241.099 92.7626 241.101 94.8437V201.083Z" fill="#3B94EC" stroke="black" stroke-width="3" stroke-linecap="round" stroke-linejoin="round"/>
<path d="M231.445 95.8971H42.6558V199.511H231.445V95.8971Z" fill="white" stroke="black" stroke-width="3" stroke-linecap="round" stroke-linejoin="round"/>
<path d="M189.047 256.507C189.047 257.734 188.56 258.91 187.693 259.778C186.826 260.645 185.651 261.132 184.425 261.132H89.6681C88.4421 261.132 87.2665 260.645 86.3996 259.778C85.5328 258.91 85.0458 257.734 85.0458 256.507V254.639C85.0458 253.412 85.5328 252.235 86.3996 251.368C87.2665 250.5 88.4421 250.013 89.6681 250.013H184.425C185.651 250.013 186.826 250.5 187.693 251.368C188.56 252.235 189.047 253.412 189.047 254.639V256.507Z" fill="#DDDDDD" stroke="black" stroke-width="3" stroke-linecap="round" stroke-linejoin="round"/>
<path d="M99.4391 106.391H172.318C173.692 106.391 175.01 106.937 175.982 107.91C176.954 108.882 177.5 110.201 177.5 111.576V184.474C177.5 185.851 176.953 187.172 175.98 188.146C175.006 189.12 173.686 189.667 172.31 189.667H99.4391C98.0627 189.667 96.7426 189.12 95.7693 188.146C94.7961 187.172 94.2493 185.851 94.2493 184.474V111.584C94.2482 110.902 94.3817 110.226 94.6421 109.596C94.9026 108.965 95.2848 108.392 95.7669 107.91C96.2491 107.427 96.8216 107.045 97.4518 106.784C98.0819 106.524 98.7572 106.39 99.4391 106.391Z" fill="#E8F2FC" stroke="black" stroke-width="3" stroke-linecap="round" stroke-linejoin="round"/>
<path d="M177.253 173.527L154.109 150.375L144.239 160.251L123.834 139.831L94.595 169.083" stroke="black" stroke-width="3" stroke-linecap="round" stroke-linejoin="round"/>
<path d="M154.29 134.268C155.687 134.268 157.053 133.853 158.215 133.076C159.376 132.299 160.282 131.195 160.817 129.903C161.351 128.611 161.491 127.19 161.219 125.818C160.946 124.447 160.273 123.187 159.285 122.198C158.297 121.21 157.038 120.536 155.668 120.264C154.297 119.991 152.877 120.131 151.586 120.666C150.295 121.201 149.191 122.107 148.415 123.27C147.639 124.432 147.224 125.799 147.224 127.198C147.224 129.073 147.969 130.871 149.294 132.197C150.619 133.523 152.416 134.268 154.29 134.268Z" fill="#3B94EC" stroke="black" stroke-width="3" stroke-linecap="round" stroke-linejoin="round"/>
<path d="M334.98 95H276.865C273.382 95 270.041 96.3817 267.574 98.8425C265.107 101.303 263.716 104.642 263.705 108.128V241.313C263.716 244.799 265.107 248.138 267.574 250.598C270.041 253.059 273.382 254.441 276.865 254.441H334.98C338.463 254.441 341.804 253.059 344.271 250.598C346.738 248.138 348.129 244.799 348.14 241.313V108.128C348.129 104.642 346.738 101.303 344.271 98.8425C341.804 96.3817 338.463 95 334.98 95Z" fill="#E8F2FC" stroke="black" stroke-width="3" stroke-linecap="round" stroke-linejoin="round"/>
<path d="M348.09 113.305H263.738V219.725H348.09V113.305Z" fill="white" stroke="black" stroke-width="3" stroke-linecap="round" stroke-linejoin="round"/>
<path d="M315.101 237.346C315.104 239.21 314.555 241.032 313.523 242.583C312.49 244.133 311.022 245.343 309.302 246.058C307.583 246.773 305.69 246.961 303.863 246.599C302.037 246.237 300.359 245.34 299.042 244.023C297.724 242.706 296.827 241.028 296.464 239.201C296.1 237.373 296.287 235.479 297 233.758C297.713 232.036 298.92 230.565 300.469 229.531C302.018 228.497 303.838 227.945 305.7 227.947C308.192 227.947 310.582 228.937 312.345 230.699C314.107 232.462 315.099 234.853 315.101 237.346V237.346Z" fill="#3381E0"/>
<path d="M280.311 197.585H331.304C332.068 197.586 332.826 197.436 333.533 197.144C334.24 196.853 334.882 196.424 335.424 195.884C335.965 195.344 336.395 194.702 336.689 193.995C336.982 193.289 337.134 192.531 337.135 191.766V135.889H274.488V191.733C274.484 192.5 274.633 193.261 274.924 193.97C275.215 194.68 275.643 195.326 276.184 195.869C276.725 196.413 277.368 196.844 278.077 197.139C278.785 197.433 279.544 197.585 280.311 197.585V197.585Z" fill="white" stroke="black" stroke-width="3" stroke-linecap="round" stroke-linejoin="round"/>
<path d="M337.151 128.358C337.151 127.592 337.001 126.834 336.707 126.126C336.414 125.419 335.985 124.776 335.443 124.235C334.901 123.694 334.259 123.265 333.551 122.972C332.844 122.68 332.086 122.53 331.32 122.531H280.327C278.783 122.531 277.302 123.145 276.209 124.238C275.117 125.331 274.504 126.813 274.504 128.358V135.881H337.168L337.151 128.358Z" fill="#3B94EC" stroke="black" stroke-width="3" stroke-linecap="round" stroke-linejoin="round"/>
<path d="M315.562 130.087C315.562 130.594 315.411 131.091 315.129 131.513C314.847 131.935 314.446 132.265 313.978 132.459C313.509 132.653 312.993 132.704 312.495 132.605C311.997 132.506 311.54 132.261 311.181 131.902C310.822 131.543 310.578 131.086 310.479 130.588C310.38 130.089 310.431 129.573 310.625 129.104C310.819 128.635 311.148 128.234 311.57 127.951C311.992 127.669 312.488 127.519 312.996 127.519C313.676 127.519 314.329 127.789 314.81 128.271C315.291 128.752 315.562 129.405 315.562 130.087V130.087Z" fill="black"/>
<path d="M331.551 130.087C331.551 130.594 331.4 131.091 331.118 131.513C330.836 131.935 330.435 132.265 329.966 132.459C329.498 132.653 328.982 132.704 328.484 132.605C327.986 132.506 327.529 132.261 327.17 131.902C326.811 131.543 326.567 131.086 326.468 130.588C326.369 130.089 326.419 129.573 326.614 129.104C326.808 128.635 327.137 128.234 327.559 127.951C327.981 127.669 328.477 127.519 328.984 127.519C329.665 127.519 330.318 127.789 330.799 128.271C331.28 128.752 331.551 129.405 331.551 130.087V130.087Z" fill="black"/>
<path d="M323.556 130.087C323.559 130.595 323.411 131.094 323.131 131.519C322.851 131.943 322.451 132.275 321.982 132.471C321.512 132.668 320.996 132.721 320.496 132.623C319.997 132.525 319.539 132.281 319.179 131.922C318.818 131.562 318.573 131.104 318.473 130.605C318.374 130.106 318.425 129.588 318.62 129.118C318.815 128.648 319.145 128.247 319.569 127.965C319.992 127.683 320.49 127.533 320.998 127.535C321.675 127.537 322.323 127.807 322.802 128.284C323.281 128.762 323.552 129.41 323.556 130.087V130.087Z" fill="black"/>
<path d="M321.171 167.864C321.171 170.598 320.361 173.269 318.844 175.542C317.326 177.814 315.17 179.586 312.646 180.632C310.123 181.677 307.346 181.951 304.668 181.418C301.989 180.885 299.528 179.569 297.597 177.636C295.666 175.703 294.351 173.241 293.818 170.56C293.285 167.88 293.558 165.101 294.604 162.576C295.649 160.051 297.419 157.893 299.69 156.374C301.961 154.856 304.63 154.045 307.362 154.045C311.024 154.045 314.537 155.501 317.126 158.093C319.716 160.685 321.171 164.199 321.171 167.864V167.864Z" fill="white" stroke="black" stroke-width="3" stroke-linecap="round" stroke-linejoin="round"/>
<path d="M306.325 164.943C306.325 164.37 306.213 163.803 305.993 163.275C305.774 162.746 305.453 162.265 305.048 161.861C304.643 161.457 304.163 161.136 303.634 160.918C303.105 160.699 302.538 160.588 301.966 160.589C301.712 160.586 301.459 160.608 301.21 160.655C301.461 160.096 301.59 159.49 301.588 158.877C301.591 157.856 301.235 156.868 300.584 156.083C299.932 155.298 299.026 154.767 298.023 154.583C297.02 154.399 295.984 154.573 295.096 155.075C294.209 155.577 293.525 156.375 293.166 157.329C292.95 156.799 292.631 156.316 292.229 155.908C291.826 155.501 291.348 155.176 290.82 154.954C290.292 154.732 289.726 154.615 289.153 154.612C288.581 154.609 288.013 154.718 287.483 154.934C286.952 155.151 286.47 155.469 286.062 155.872C285.655 156.275 285.331 156.754 285.109 157.282C284.887 157.81 284.77 158.377 284.767 158.95C284.764 159.523 284.873 160.091 285.089 160.622H284.999C283.845 160.622 282.738 161.08 281.922 161.897C281.106 162.713 280.648 163.821 280.648 164.976C280.648 166.13 281.106 167.238 281.922 168.054C282.738 168.871 283.845 169.33 284.999 169.33H302.221C303.338 169.266 304.387 168.775 305.151 167.958C305.915 167.141 306.336 166.062 306.325 164.943V164.943Z" fill="#E8F2FC" stroke="black" stroke-width="3" stroke-linecap="round" stroke-linejoin="round"/>
<path d="M306.975 185.856V190.169" stroke="black" stroke-width="3" stroke-linecap="round" stroke-linejoin="round"/>
<path d="M306.975 145.56V149.873" stroke="black" stroke-width="3" stroke-linecap="round" stroke-linejoin="round"/>
<path d="M324.946 167.864H329.264" stroke="black" stroke-width="3" stroke-linecap="round" stroke-linejoin="round"/>
<path d="M319.682 155.14L322.734 152.095" stroke="black" stroke-width="3" stroke-linecap="round" stroke-linejoin="round"/>
<path d="M291.208 183.634L294.26 180.589" stroke="black" stroke-width="3" stroke-linecap="round" stroke-linejoin="round"/>
<path d="M322.734 183.634L319.682 180.589" stroke="black" stroke-width="3" stroke-linecap="round" stroke-linejoin="round"/>
</svg>
