<svg width="1280" height="649" viewBox="0 0 1280 649" fill="none" xmlns="http://www.w3.org/2000/svg">
<g clip-path="url(#clip0)">
<path d="M490.445 571.838C474.147 571.838 463.808 570.5 463.5 569L468 578.698C475 583.198 466.575 586.617 493 586.617C494.78 586.618 493.987 586.513 495.631 585.849C497.276 585.186 498.77 584.213 500.029 582.986C501.288 581.758 502.287 580.301 502.968 578.698C503.649 577.094 505.5 575.236 505.5 573.5L507.5 568C507.5 569.569 497.934 571.838 490.445 571.838Z" fill="#D8DBD7"/>
<path d="M323.951 123.242C325.509 125.876 327.725 128.057 330.38 129.571C333.036 131.085 336.039 131.88 339.094 131.878H389.046C392.75 131.856 396.304 130.412 398.978 127.843C401.652 125.275 403.243 121.777 403.422 118.07C403.601 114.363 402.356 110.728 399.943 107.912C397.529 105.096 394.131 103.315 390.446 102.933C390.117 97.7339 388.304 92.7387 385.223 88.5423C382.141 84.3459 377.922 81.1251 373.066 79.2632C368.21 77.4014 362.923 76.9768 357.833 78.0402C352.743 79.1035 348.066 81.61 344.357 85.2612" fill="#E8F2FC"/>
<path d="M323.951 123.242C325.509 125.876 327.725 128.057 330.38 129.571C333.036 131.085 336.039 131.88 339.094 131.878H389.046C392.75 131.856 396.304 130.412 398.978 127.843C401.652 125.275 403.243 121.777 403.422 118.07C403.601 114.363 402.356 110.728 399.943 107.912C397.529 105.096 394.131 103.315 390.446 102.933C390.117 97.7339 388.304 92.7387 385.223 88.5423C382.141 84.3459 377.922 81.1251 373.066 79.2632C368.21 77.4014 362.923 76.9768 357.833 78.0402C352.743 79.1035 348.066 81.61 344.357 85.2612" stroke="#130D2A" stroke-width="3" stroke-miterlimit="10"/>
<path d="M783 607.556C783.804 608.911 784.947 610.034 786.316 610.813C787.686 611.592 789.235 612.001 790.811 612H816.576C818.487 611.988 820.32 611.245 821.699 609.924C823.078 608.602 823.899 606.802 823.991 604.894C824.084 602.986 823.441 601.116 822.197 599.667C820.952 598.218 819.199 597.301 817.298 597.105C817.129 594.429 816.193 591.858 814.604 589.699C813.015 587.539 810.838 585.882 808.333 584.924C805.829 583.966 803.102 583.747 800.476 584.295C797.851 584.842 795.438 586.132 793.525 588.011" fill="#E8F2FC"/>
<path d="M783 607.556C783.804 608.911 784.947 610.034 786.316 610.813C787.686 611.592 789.235 612.001 790.811 612H816.576C818.487 611.988 820.32 611.245 821.699 609.924C823.078 608.602 823.899 606.802 823.991 604.894C824.084 602.986 823.441 601.116 822.197 599.667C820.952 598.218 819.199 597.301 817.298 597.105C817.129 594.429 816.193 591.858 814.604 589.699C813.015 587.539 810.838 585.882 808.333 584.924C805.829 583.966 803.102 583.747 800.476 584.295C797.851 584.842 795.438 586.132 793.525 588.011" stroke="#130D2A" stroke-width="3" stroke-miterlimit="10"/>
<path d="M602.198 449.668C602.361 449.34 602.613 449.065 602.924 448.872C603.235 448.679 603.594 448.577 603.96 448.577C604.326 448.577 604.684 448.679 604.996 448.872C605.307 449.065 605.558 449.34 605.722 449.668L612.062 462.545C612.337 463.095 612.741 463.571 613.239 463.931C613.738 464.291 614.316 464.524 614.924 464.611L629.097 466.677C629.46 466.731 629.801 466.885 630.081 467.122C630.361 467.359 630.57 467.67 630.684 468.019C630.797 468.368 630.811 468.743 630.724 469.099C630.637 469.456 630.452 469.782 630.19 470.039L619.926 480.063C619.485 480.492 619.155 481.022 618.965 481.608C618.774 482.194 618.729 482.817 618.833 483.424L621.265 497.581C621.324 497.943 621.281 498.315 621.141 498.655C621.002 498.994 620.77 499.288 620.472 499.502C620.175 499.717 619.824 499.844 619.458 499.87C619.092 499.896 618.727 499.818 618.402 499.647L605.722 492.97C605.177 492.688 604.573 492.542 603.96 492.542C603.347 492.542 602.743 492.688 602.198 492.97L589.517 499.632C589.193 499.803 588.828 499.88 588.462 499.855C588.096 499.829 587.745 499.702 587.447 499.487C587.15 499.272 586.918 498.979 586.778 498.639C586.638 498.3 586.596 497.928 586.655 497.565L589.086 483.409C589.186 482.802 589.139 482.18 588.949 481.595C588.759 481.01 588.431 480.479 587.994 480.047L577.73 470.024C577.468 469.766 577.283 469.441 577.196 469.084C577.109 468.727 577.123 468.353 577.236 468.004C577.35 467.654 577.558 467.344 577.838 467.107C578.119 466.87 578.459 466.716 578.822 466.662L592.995 464.596C593.595 464.518 594.167 464.299 594.665 463.956C595.162 463.612 595.571 463.155 595.858 462.622L602.198 449.668Z" stroke="#130D2A" stroke-width="3" stroke-miterlimit="10"/>
<path d="M128.328 45.3524C128.45 45.0832 128.647 44.8549 128.896 44.6949C129.144 44.5348 129.433 44.4497 129.728 44.4497C130.023 44.4497 130.312 44.5348 130.561 44.6949C130.809 44.8549 131.006 45.0832 131.128 45.3524L136.161 55.5147C136.374 55.9755 136.7 56.3744 137.109 56.6738C137.518 56.9733 137.997 57.1634 138.5 57.2264L149.764 58.8764C150.057 58.9107 150.334 59.0285 150.562 59.2159C150.79 59.4032 150.959 59.6521 151.05 59.9331C151.141 60.2141 151.149 60.5153 151.074 60.8009C150.999 61.0865 150.843 61.3445 150.626 61.5442L142.485 69.5013C142.133 69.8416 141.867 70.2612 141.71 70.7251C141.552 71.1891 141.506 71.6841 141.578 72.1691L143.501 83.4108C143.562 83.7023 143.537 84.0053 143.43 84.2831C143.323 84.5608 143.137 84.8015 142.896 84.976C142.656 85.1505 142.369 85.2514 142.073 85.2665C141.776 85.2815 141.481 85.2101 141.224 85.0608L131.159 79.7561C130.726 79.5341 130.246 79.4183 129.759 79.4183C129.272 79.4183 128.792 79.5341 128.358 79.7561L118.279 85.0608C118.022 85.2054 117.729 85.2731 117.435 85.2558C117.141 85.2385 116.858 85.1369 116.619 84.9631C116.381 84.7894 116.198 84.5507 116.091 84.2755C115.984 84.0003 115.958 83.7002 116.017 83.4108L117.94 72.1691C118.017 71.6878 117.979 71.1951 117.829 70.7313C117.68 70.2676 117.422 69.8461 117.078 69.5013L108.922 61.5442C108.705 61.3435 108.549 61.0843 108.475 60.7975C108.401 60.5107 108.41 60.2085 108.503 59.927C108.595 59.6456 108.767 59.3968 108.997 59.2105C109.227 59.0242 109.505 58.9082 109.799 58.8764L121.049 57.2264C121.532 57.1413 121.989 56.9416 122.379 56.6438C122.77 56.346 123.084 55.9589 123.296 55.5147L128.328 45.3524Z" stroke="#130D2A" stroke-width="3" stroke-miterlimit="10"/>
<path d="M1051.86 459.538C1051.96 459.339 1052.1 459.171 1052.29 459.053C1052.48 458.936 1052.69 458.873 1052.91 458.873C1053.13 458.873 1053.35 458.936 1053.54 459.053C1053.72 459.171 1053.87 459.339 1053.97 459.538L1057.75 467.248C1057.92 467.575 1058.16 467.858 1058.46 468.073C1058.76 468.288 1059.1 468.428 1059.46 468.482L1067.94 469.715C1068.16 469.746 1068.36 469.838 1068.53 469.979C1068.7 470.12 1068.82 470.306 1068.89 470.515C1068.96 470.724 1068.96 470.948 1068.91 471.161C1068.86 471.374 1068.75 471.568 1068.59 471.72L1062.43 477.719C1062.17 477.973 1061.97 478.289 1061.85 478.638C1061.74 478.988 1061.71 479.36 1061.77 479.723L1063.22 488.174C1063.26 488.39 1063.23 488.613 1063.15 488.817C1063.07 489.021 1062.94 489.198 1062.76 489.328C1062.58 489.458 1062.37 489.536 1062.16 489.553C1061.94 489.57 1061.72 489.525 1061.52 489.423L1053.94 485.429C1053.61 485.255 1053.25 485.164 1052.88 485.164C1052.52 485.164 1052.15 485.255 1051.83 485.429L1044.26 489.423C1044.06 489.523 1043.84 489.566 1043.63 489.549C1043.41 489.532 1043.2 489.454 1043.02 489.325C1042.84 489.195 1042.71 489.019 1042.62 488.816C1042.54 488.613 1042.51 488.391 1042.55 488.174L1044 479.723C1044.06 479.362 1044.03 478.991 1043.92 478.642C1043.81 478.293 1043.61 477.976 1043.35 477.719L1037.19 471.72C1037.04 471.568 1036.92 471.374 1036.87 471.161C1036.82 470.948 1036.83 470.724 1036.89 470.515C1036.96 470.306 1037.08 470.12 1037.25 469.979C1037.42 469.838 1037.62 469.746 1037.84 469.715L1046.3 468.482C1046.67 468.43 1047.01 468.291 1047.31 468.076C1047.61 467.861 1047.85 467.577 1048.01 467.248L1051.86 459.538Z" stroke="#130D2A" stroke-width="3" stroke-miterlimit="10"/>
<path d="M975.378 233.346C969.511 239.221 961.557 242.52 953.264 242.52C944.971 242.52 937.017 239.221 931.15 233.346L929.611 231.804L922.302 224.48C919.398 221.569 915.95 219.26 912.156 217.685C908.362 216.11 904.295 215.299 900.188 215.299C896.081 215.299 892.014 216.11 888.22 217.685C884.425 219.26 880.978 221.569 878.074 224.48" stroke="#130D2A" stroke-width="3" stroke-linecap="round" stroke-linejoin="round" stroke-dasharray="10 10"/>
<path d="M132.006 331.731C145.752 331.731 158.935 337.203 168.655 346.943C178.375 356.683 183.835 369.893 183.835 383.668V397.176" stroke="#130D2A" stroke-width="3" stroke-linecap="round" stroke-linejoin="round" stroke-dasharray="10 10"/>
<path d="M579.515 109.61V134.16" stroke="#130D2A" stroke-width="3" stroke-linecap="round" stroke-linejoin="round"/>
<path d="M621.957 134.16H537.057" stroke="#130D2A" stroke-width="3" stroke-linecap="round" stroke-linejoin="round"/>
<path d="M637.284 89.1627C637.283 84.0955 635.404 79.2092 632.012 75.4511C628.62 71.6931 623.957 69.331 618.925 68.8227C618.35 59.8734 614.662 51.4095 608.503 44.9034C602.343 38.3974 594.103 34.261 585.215 33.2139C576.327 32.1669 567.353 34.2754 559.856 39.1726C552.359 44.0699 546.813 51.4459 544.182 60.0175C537.856 60.6509 532.015 63.6935 527.863 68.5175C523.711 73.3415 521.566 79.5786 521.87 85.9415C522.174 92.3045 524.904 98.3076 529.497 102.712C534.09 107.116 540.195 109.586 546.552 109.611H616.956C622.356 109.594 627.528 107.432 631.339 103.599C635.15 99.7654 637.288 94.5737 637.284 89.1627V89.1627Z" fill="#E8F2FC" stroke="#130D2A" stroke-width="3" stroke-linejoin="round"/>
<path d="M589.179 134.16C589.179 136.079 588.611 137.955 587.546 139.551C586.482 141.146 584.969 142.389 583.2 143.123C581.43 143.857 579.483 144.048 577.605 143.672C575.727 143.297 574.002 142.372 572.649 141.014C571.296 139.655 570.375 137.926 570.004 136.043C569.632 134.161 569.826 132.21 570.561 130.438C571.296 128.666 572.539 127.152 574.133 126.088C575.726 125.024 577.599 124.458 579.515 124.461C580.785 124.461 582.043 124.712 583.216 125.199C584.39 125.687 585.456 126.402 586.354 127.303C587.251 128.203 587.963 129.273 588.448 130.45C588.932 131.626 589.181 132.887 589.179 134.16V134.16Z" fill="#4078FF"/>
<path d="M1144.64 468.25V478.258C1144.64 487.923 1140.81 497.191 1133.99 504.025C1127.17 510.859 1117.92 514.698 1108.28 514.698H1030.7" stroke="#130D2A" stroke-width="3" stroke-linecap="round" stroke-linejoin="round" stroke-dasharray="10 10"/>
<path d="M391.077 446.291C390.923 446.294 390.771 446.251 390.641 446.168C390.511 446.084 390.408 445.964 390.345 445.823C390.283 445.681 390.264 445.524 390.29 445.372C390.316 445.219 390.387 445.078 390.493 444.965L405.758 419.243L421.055 444.95C421.16 445.065 421.229 445.209 421.253 445.363C421.278 445.517 421.257 445.675 421.193 445.817C421.13 445.96 421.026 446.081 420.895 446.165C420.763 446.249 420.61 446.293 420.455 446.291H412.299V464.95C412.299 465.425 412.111 465.88 411.776 466.215C411.441 466.551 410.987 466.739 410.514 466.739H401.434C400.961 466.739 400.507 466.551 400.172 466.215C399.837 465.88 399.649 465.425 399.649 464.95V446.322L391.077 446.291Z" stroke="#130D2A" stroke-width="3" stroke-linecap="round" stroke-linejoin="round"/>
<path d="M319.288 516.795H369.333C378.969 516.783 388.207 512.938 395.016 506.106C401.826 499.273 405.651 490.012 405.651 480.356V473.571" stroke="#130D2A" stroke-width="3" stroke-linecap="round" stroke-linejoin="round" stroke-dasharray="10 10"/>
<path d="M535.687 336.542C535.764 336.616 535.86 336.667 535.964 336.688C536.068 336.708 536.176 336.699 536.275 336.66C536.374 336.621 536.46 336.554 536.522 336.467C536.584 336.381 536.62 336.278 536.626 336.172L541.704 316.125L521.699 321.214C521.589 321.216 521.483 321.252 521.393 321.315C521.304 321.378 521.235 321.466 521.196 321.568C521.156 321.671 521.148 321.782 521.171 321.889C521.195 321.996 521.25 322.094 521.329 322.17L525.33 326.148L516.22 335.277C515.989 335.511 515.859 335.827 515.859 336.156C515.859 336.486 515.989 336.801 516.22 337.035L520.668 341.477C520.782 341.593 520.919 341.686 521.069 341.749C521.22 341.812 521.381 341.845 521.545 341.845C521.708 341.845 521.87 341.812 522.02 341.749C522.171 341.686 522.307 341.593 522.422 341.477L531.501 332.378L535.687 336.542Z" stroke="#130D2A" stroke-width="3" stroke-linecap="round" stroke-linejoin="round"/>
<path d="M496.445 407.107L491.567 402.219C489.228 399.876 487.373 397.095 486.107 394.033C484.841 390.972 484.19 387.691 484.19 384.377C484.19 381.063 484.841 377.782 486.107 374.721C487.373 371.659 489.228 368.878 491.567 366.535L515.219 342.818" stroke="#130D2A" stroke-width="3" stroke-linecap="round" stroke-linejoin="round" stroke-dasharray="10 10"/>
<path d="M405.574 361.678V388.109" stroke="#130D2A" stroke-width="3" stroke-linecap="round" stroke-linejoin="round"/>
<path d="M653.605 572.43V598.862" stroke="#130D2A" stroke-width="3" stroke-linecap="round" stroke-linejoin="round"/>
<path d="M418.762 374.893H392.385" stroke="#130D2A" stroke-width="3" stroke-linecap="round" stroke-linejoin="round"/>
<path d="M666.794 585.646H640.417" stroke="#130D2A" stroke-width="3" stroke-linecap="round" stroke-linejoin="round"/>
<path d="M425.179 374.893C425.179 378.779 424.029 382.577 421.875 385.808C419.721 389.039 416.659 391.557 413.076 393.044C409.494 394.531 405.552 394.92 401.749 394.162C397.946 393.404 394.452 391.533 391.711 388.785C388.969 386.038 387.101 382.537 386.345 378.726C385.589 374.915 385.977 370.965 387.461 367.375C388.945 363.785 391.457 360.717 394.682 358.558C397.906 356.4 401.696 355.247 405.574 355.247C408.148 355.247 410.698 355.755 413.076 356.743C415.455 357.73 417.616 359.177 419.437 361.002C421.257 362.826 422.702 364.992 423.687 367.375C424.672 369.759 425.179 372.313 425.179 374.893Z" stroke="#130D2A" stroke-width="3" stroke-linecap="round" stroke-linejoin="round"/>
<path d="M673.211 585.646C673.211 589.532 672.061 593.33 669.907 596.561C667.752 599.792 664.691 602.31 661.108 603.797C657.526 605.284 653.584 605.673 649.781 604.915C645.978 604.157 642.484 602.285 639.742 599.538C637 596.79 635.133 593.29 634.377 589.479C633.62 585.668 634.008 581.718 635.492 578.128C636.976 574.538 639.489 571.47 642.713 569.311C645.937 567.152 649.728 566 653.605 566C656.18 566 658.729 566.508 661.108 567.495C663.487 568.483 665.648 569.93 667.469 571.754C669.289 573.578 670.733 575.744 671.719 578.128C672.704 580.511 673.211 583.066 673.211 585.646Z" stroke="#130D2A" stroke-width="3" stroke-linecap="round" stroke-linejoin="round"/>
<path d="M269.182 480.803C260.556 480.69 252.029 482.648 244.313 486.514C236.597 490.38 229.917 496.041 224.831 503.024C224.831 503.024 236.696 525.261 269.182 525.261C301.668 525.261 313.533 503.024 313.533 503.024C308.447 496.041 301.767 490.38 294.051 486.514C286.336 482.648 277.808 480.69 269.182 480.803V480.803Z" stroke="#130D2A" stroke-width="3" stroke-linecap="round" stroke-linejoin="round"/>
<path d="M284.202 503.024C284.202 506.001 283.321 508.911 281.67 511.386C280.02 513.861 277.674 515.79 274.93 516.929C272.185 518.068 269.165 518.366 266.252 517.785C263.338 517.205 260.662 515.771 258.562 513.666C256.461 511.562 255.031 508.88 254.451 505.96C253.872 503.041 254.169 500.015 255.306 497.264C256.443 494.514 258.368 492.164 260.838 490.51C263.308 488.856 266.211 487.973 269.182 487.973C273.165 487.973 276.986 489.559 279.802 492.382C282.619 495.204 284.202 499.032 284.202 503.024Z" fill="#4078FF"/>
<path d="M276.723 503.024C276.726 504.519 276.286 505.982 275.459 507.226C274.633 508.471 273.456 509.442 272.078 510.016C270.701 510.59 269.184 510.742 267.72 510.452C266.257 510.163 264.912 509.444 263.856 508.388C262.799 507.332 262.08 505.986 261.788 504.519C261.495 503.053 261.644 501.533 262.214 500.151C262.784 498.77 263.751 497.589 264.991 496.758C266.232 495.927 267.69 495.483 269.182 495.483C271.179 495.483 273.095 496.277 274.509 497.691C275.922 499.105 276.719 501.023 276.723 503.024V503.024Z" stroke="#130D2A" stroke-width="3" stroke-linecap="round" stroke-linejoin="round"/>
<path d="M268.843 449.56V470.085" stroke="#130D2A" stroke-width="3" stroke-linecap="round" stroke-linejoin="round"/>
<path d="M227.832 463.377L241.19 478.891" stroke="#130D2A" stroke-width="3" stroke-linecap="round" stroke-linejoin="round"/>
<path d="M309.855 463.377L296.482 478.891" stroke="#130D2A" stroke-width="3" stroke-linecap="round" stroke-linejoin="round"/>
<path d="M1096.29 304.96C1089.9 304.879 1083.58 306.331 1077.87 309.197C1072.16 312.062 1067.21 316.257 1063.45 321.43C1063.45 321.43 1072.23 337.884 1096.29 337.884C1120.34 337.884 1129.13 321.43 1129.13 321.43C1125.36 316.257 1120.42 312.062 1114.7 309.197C1108.99 306.331 1102.68 304.879 1096.29 304.96V304.96Z" stroke="#130D2A" stroke-width="3" stroke-linecap="round" stroke-linejoin="round"/>
<path d="M1107.41 321.43C1107.41 323.635 1106.76 325.79 1105.54 327.624C1104.32 329.457 1102.58 330.886 1100.55 331.73C1098.51 332.574 1096.28 332.795 1094.12 332.365C1091.96 331.934 1089.98 330.873 1088.42 329.313C1086.86 327.754 1085.8 325.768 1085.38 323.605C1084.95 321.442 1085.17 319.2 1086.01 317.163C1086.85 315.126 1088.28 313.385 1090.11 312.159C1091.94 310.934 1094.09 310.281 1096.29 310.281C1099.24 310.281 1102.07 311.455 1104.16 313.546C1106.24 315.637 1107.41 318.473 1107.41 321.43V321.43Z" fill="#4078FF"/>
<path d="M1096.03 281.845V297.034" stroke="#130D2A" stroke-width="3" stroke-linecap="round" stroke-linejoin="round"/>
<path d="M1065.66 292.069L1075.56 303.557" stroke="#130D2A" stroke-width="3" stroke-linecap="round" stroke-linejoin="round"/>
<path d="M1126.4 292.069L1116.49 303.557" stroke="#130D2A" stroke-width="3" stroke-linecap="round" stroke-linejoin="round"/>
<path d="M848.296 220.516C845.914 217.315 844.369 213.567 843.803 209.614C842.913 210.129 842.104 210.773 841.402 211.526C836.786 216.553 835.462 224.85 842.141 234.395C842.479 234.888 855.206 256.4 858.222 261.273C864.716 263.078 871.211 265.807 871.211 258.421C863.593 245.899 849.02 221.55 848.296 220.516Z" fill="#D8DBD7"/>
<path d="M823.413 279.855C825.46 273.81 822.643 269.323 817.257 267.087C803.407 261.366 774.015 252.098 760.872 246.901C753.347 243.925 739.328 238.667 735.865 236.631C732.964 235.16 730.754 232.608 729.71 229.522C723.123 233.377 718.938 244.326 729.71 250.51C733.249 252.545 747.192 257.804 754.717 260.78C763.719 264.342 799.729 277.511 813.41 282.292C820.458 284.096 822.428 282.754 823.413 279.855Z" fill="#D8DBD7"/>
<path d="M937.09 386.212L937.567 380.861L922.363 376.482C922.363 376.482 906.574 389.713 872.703 379.473L837.216 368.679C837.216 368.679 834.708 368 831.061 366.689L807.624 359.642C805.178 359.038 802.959 357.738 801.234 355.9C799.508 354.061 798.35 351.762 797.898 349.279C796.222 350.255 794.794 351.607 793.726 353.228C792.658 354.849 791.979 356.696 791.742 358.624C791.161 361.884 791.847 365.243 793.658 368.013C795.469 370.783 798.269 372.753 801.484 373.521L824.921 380.568C828.537 381.879 831.076 382.557 831.076 382.557L866.563 393.352C900.419 403.591 916.223 390.36 916.223 390.36L931.427 394.74L930.95 400.091C930.764 400.739 930.84 401.435 931.163 402.027C931.486 402.619 932.029 403.059 932.674 403.252L1277.95 509.485V493.71L938.814 389.373C938.169 389.18 937.626 388.74 937.303 388.148C936.98 387.556 936.904 386.86 937.09 386.212V386.212Z" fill="#D8DBD7"/>
<path d="M953.31 321.723L930.073 314.922C930.073 314.922 930.073 314.752 928.534 312.331C926.995 303.295 921.825 288.445 905.328 267.935C892.94 252.777 870.195 223.585 858.33 211.11C853.513 207.64 845.65 206.699 841.079 211.65C836.509 216.6 835.139 224.988 841.818 234.518C842.541 235.567 851.328 249.692 858.946 262.183C820.273 251.389 738.143 229.075 735.927 228.504C726.817 226.16 715.321 242.537 729.356 250.649C732.895 252.684 746.838 257.958 754.363 260.934C767.505 266.131 810.748 281.104 810.748 281.104C810.748 281.104 815.164 282.246 814.38 284.836C813.918 286.378 812.841 286.671 810.763 286.224C803.684 284.081 793.958 287.566 791.296 296.402C788.957 304.112 793.481 312.362 800.099 315.508L800.345 315.693C800.67 315.743 800.964 315.915 801.167 316.175C801.369 316.434 801.466 316.761 801.437 317.089C801.407 317.418 801.254 317.722 801.008 317.941C800.763 318.16 800.443 318.277 800.114 318.268C793.42 319.641 789.126 323.851 789.019 332.147C788.926 338.639 792.573 343.466 799.575 346.427C799.575 346.427 801.453 347.121 799.76 348.37C795.528 350.359 792.266 353.304 791.435 358.887C790.853 362.148 791.538 365.51 793.349 368.282C795.16 371.054 797.96 373.028 801.176 373.798L824.613 380.83C828.229 382.141 830.769 382.835 830.769 382.835L866.255 393.629C900.111 403.853 915.915 390.638 915.915 390.638L931.119 395.017" stroke="#130D2A" stroke-width="3" stroke-linecap="round" stroke-linejoin="round"/>
<path d="M1277.69 411.733L959.142 313.75C958.822 313.653 958.486 313.62 958.153 313.654C957.82 313.687 957.497 313.786 957.202 313.945C956.907 314.104 956.647 314.32 956.436 314.581C956.225 314.841 956.067 315.14 955.972 315.462L930.765 400.276C930.602 400.913 930.689 401.589 931.01 402.164C931.331 402.738 931.861 403.166 932.489 403.36L1277.77 509.593" stroke="#130D2A" stroke-width="3" stroke-linecap="round" stroke-linejoin="round"/>
<path d="M451.432 200.007C444.317 199.903 426.172 198.595 415.858 195.346C412.511 194.279 388.866 206.44 385.021 233.315C385.021 233.315 399.248 208.75 412.802 210.033C417.132 207.557 420.572 206.128 421.708 206.485C432.02 209.779 450.168 211.041 457.283 211.145C470.973 211.355 476.744 198.827 474.469 191.565C473.945 189.898 471.937 188.334 468.735 186.873C467.871 190.762 465.658 194.216 462.489 196.622C459.319 199.027 455.401 200.227 451.432 200.007Z" fill="#D8DBD7"/>
<path d="M264.355 480.312L369.223 386.324L363.096 375.433L258.504 469.174L244.615 481.618L264.355 480.312Z" fill="#D8DBD7"/>
<path d="M218.799 504.763L160.967 556.374L178.406 557.349L227.522 513.328L218.799 504.763Z" fill="#D8DBD7"/>
<path d="M466.294 254.246C466.368 255.599 466.323 256.956 466.16 258.301C464.513 272.881 444.339 283.043 429.807 286.324L427.356 286.866L426.918 294.703C426.918 294.703 426.762 307.977 413.242 307.468C406.997 307.243 402.503 306.59 402.503 306.59C399.964 312.688 396.819 318.514 393.115 323.981C374.855 351.471 356.317 360.505 356.317 360.505L350.49 364.38L359.558 374.494L362.168 371.643C362.168 371.643 380.625 362.667 399.024 335.185C402.727 329.718 405.873 323.891 408.411 317.793C408.411 317.793 412.891 318.445 419.151 318.672C432.686 319.181 432.827 305.907 432.827 305.907L432.991 302.981L435.441 302.439C449.974 299.158 447.143 286.104 447.143 286.104L447.435 286.12C450.07 285.85 470.309 284.171 471.972 269.591C473.157 259.418 468.081 255.365 466.294 254.246Z" fill="#D8DBD7"/>
<path d="M408.473 316.685C405.938 322.79 402.792 328.621 399.085 334.091C380.686 361.574 362.229 370.55 362.229 370.55L359.844 374.603" stroke="#130D2A" stroke-width="3" stroke-linecap="round" stroke-linejoin="round"/>
<path d="M433.113 301.892L432.95 304.817C432.95 304.817 432.809 318.092 419.274 317.582C413.029 317.356 397.093 315.4 397.093 315.4C397.093 315.4 388.715 314.453 387.534 306.911" stroke="#130D2A" stroke-width="3" stroke-linecap="round" stroke-linejoin="round"/>
<path d="M447.253 284.967C447.253 284.967 450.065 298.067 435.551 301.302C426.84 303.271 404.877 307.402 404.877 307.402C404.877 307.402 393.778 310.18 389.758 302.14" stroke="#130D2A" stroke-width="3" stroke-linecap="round" stroke-linejoin="round"/>
<path d="M387.577 229.504C387.577 229.504 418.016 211.051 429.672 225.603C436.156 233.931 442.036 242.714 447.268 251.885" stroke="#130D2A" stroke-width="3" stroke-linecap="round" stroke-linejoin="round"/>
<path d="M307.476 316.074L335.289 242.32C335.289 242.32 341.254 222.729 356 210.951C368.987 200.587 396.231 184.148 397.238 183.509C416.007 171.724 425.172 175.14 434.259 176.915C456.519 181.248 472.849 185.25 474.478 190.577C476.754 197.839 470.982 210.367 457.292 210.158C450.177 210.053 432.032 208.745 421.718 205.497C418.371 204.429 395.485 218.718 387.528 229.548C385.058 232.945 382.958 236.597 381.263 240.442C377.829 248.096 385.474 255.535 393.685 253.955C397.719 253.053 401.824 252.502 405.953 252.309L465.646 252.882C465.646 252.882 473.412 256.235 472.035 268.452C470.373 283.016 450.134 284.711 447.5 284.965C430.606 286.631 399.593 289.16 399.593 289.16L373.705 323.514C368.559 329.766 362.298 335.004 355.24 338.961" stroke="#130D2A" stroke-width="3" stroke-linecap="round" stroke-linejoin="round"/>
<path d="M264.412 479.281L369.281 385.277L299.353 307.248L79.8465 496.566L-0.500001 518" stroke="#130D2A" stroke-width="3" stroke-linecap="round" stroke-linejoin="round"/>
<path d="M227.579 512.297L177.376 557.292L156.5 575.5L-7.55053e-08 619" stroke="#130D2A" stroke-width="3" stroke-linecap="round" stroke-linejoin="round"/>
<path d="M-0.147913 617.845L156 574L148 566.5L-0.147911 604.38L-0.147913 617.845Z" fill="#D8DBD7"/>
<path d="M480.046 213.932L440.835 211.74L438.638 251.032L477.849 253.224L480.046 213.932Z" fill="#4078FF" stroke="#130D2A" stroke-width="3" stroke-linejoin="round"/>
<path d="M1136.41 578.192L1097.2 576L1095 615.292L1134.21 617.484L1136.41 578.192Z" fill="#4078FF" stroke="#130D2A" stroke-width="3" stroke-linejoin="round"/>
<path d="M523.699 169.073V295.985H566.419V338.793H693.069V169.073H523.699ZM594.488 235.598H554.154V195.165H594.503L594.488 235.598Z" fill="#4078FF" stroke="#130D2A" stroke-width="3" stroke-linejoin="round"/>
<path d="M552.322 391.825H509.788V434.448H552.322V391.825Z" fill="#4078FF" stroke="#130D2A" stroke-width="3" stroke-linejoin="round"/>
<path d="M1155.47 199.143H1247.81C1249.78 199.143 1251.68 199.93 1253.07 201.329C1254.47 202.729 1255.25 204.627 1255.25 206.607V344.854C1255.25 346.833 1254.47 348.731 1253.07 350.131C1251.68 351.531 1249.78 352.317 1247.81 352.317H1155.47C1153.5 352.317 1151.6 351.531 1150.21 350.131C1148.81 348.731 1148.02 346.833 1148.02 344.854V206.638C1148.02 205.654 1148.21 204.68 1148.58 203.77C1148.95 202.86 1149.5 202.032 1150.19 201.336C1150.88 200.639 1151.71 200.086 1152.61 199.71C1153.52 199.334 1154.49 199.141 1155.47 199.143V199.143Z" stroke="#130D2A" stroke-width="3" stroke-linecap="round" stroke-linejoin="round"/>
<path d="M1200.62 230.031C1195.66 230.034 1190.81 231.512 1186.68 234.277C1182.56 237.043 1179.34 240.972 1177.45 245.568C1175.55 250.164 1175.05 255.221 1176.02 260.098C1176.99 264.976 1179.39 269.456 1182.9 272.972C1186.41 276.488 1190.88 278.882 1195.75 279.851C1200.62 280.821 1205.66 280.322 1210.25 278.417C1214.83 276.513 1218.75 273.29 1221.51 269.154C1224.27 265.018 1225.74 260.156 1225.74 255.182C1225.74 251.878 1225.09 248.606 1223.83 245.554C1222.56 242.501 1220.71 239.728 1218.38 237.392C1216.05 235.056 1213.28 233.204 1210.23 231.941C1207.19 230.678 1203.92 230.029 1200.62 230.031ZM1200.62 264.512C1198.8 264.512 1197.02 263.971 1195.5 262.958C1193.99 261.944 1192.8 260.504 1192.1 258.818C1191.4 257.131 1191.21 255.275 1191.56 253.482C1191.91 251.69 1192.78 250.041 1194.07 248.744C1195.35 247.447 1196.99 246.56 1198.78 246.194C1200.56 245.828 1202.42 246.001 1204.1 246.689C1205.79 247.378 1207.24 248.552 1208.26 250.063C1209.29 251.574 1209.84 253.356 1209.86 255.182C1209.86 257.643 1208.89 260.005 1207.16 261.752C1205.43 263.5 1203.08 264.491 1200.62 264.512V264.512Z" fill="#4078FF" stroke="#130D2A" stroke-width="3" stroke-linejoin="round"/>
<path d="M1237.77 255.182C1237.77 262.545 1235.59 269.742 1231.51 275.864C1227.43 281.985 1221.63 286.757 1214.84 289.574C1208.05 292.392 1200.58 293.129 1193.38 291.693C1186.17 290.256 1179.55 286.711 1174.36 281.505C1169.16 276.299 1165.62 269.666 1164.19 262.445C1162.76 255.223 1163.49 247.739 1166.3 240.937C1169.11 234.134 1173.88 228.321 1179.99 224.23C1186.09 220.14 1193.28 217.957 1200.62 217.957C1210.48 217.957 1219.93 221.879 1226.89 228.86C1233.86 235.841 1237.77 245.309 1237.77 255.182V255.182Z" stroke="#130D2A" stroke-width="3" stroke-linecap="round" stroke-linejoin="round"/>
<path d="M1234.8 307.782C1224.63 314.401 1212.76 317.924 1200.62 317.924C1188.49 317.924 1176.62 314.401 1166.45 307.782" stroke="#130D2A" stroke-width="3" stroke-linecap="round" stroke-linejoin="round"/>
<path d="M1157.75 336.311C1157.75 337.771 1158.33 339.171 1159.36 340.203C1160.39 341.236 1161.79 341.816 1163.24 341.816H1175.16L1157.75 324.375V336.311Z" stroke="#130D2A" stroke-width="3" stroke-linecap="round" stroke-linejoin="round"/>
<path d="M1244.5 336.311C1244.5 337.771 1243.92 339.171 1242.89 340.203C1241.86 341.236 1240.46 341.816 1239 341.816H1227.09L1244.5 324.375V336.311Z" stroke="#130D2A" stroke-width="3" stroke-linecap="round" stroke-linejoin="round"/>
<path d="M1015.67 43.9799L1043.07 22.4988C1059.77 9.41867 1080.36 2.31292 1101.55 2.31311H1277.69" stroke="#130D2A" stroke-width="3" stroke-linecap="round" stroke-linejoin="round"/>
<path d="M1277.69 53.5562H1019.04" stroke="#130D2A" stroke-width="3" stroke-linecap="round" stroke-linejoin="round"/>
<path d="M1019.04 53.5562C1019.04 56.6342 1018.13 59.644 1016.43 62.2048C1014.72 64.7656 1012.3 66.7623 1009.46 67.9423C1006.62 69.1223 1003.5 69.4326 1000.49 68.834C997.475 68.2354 994.707 66.7547 992.534 64.5793C990.361 62.4039 988.881 59.6315 988.28 56.6128C987.68 53.5941 987.987 50.4648 989.161 47.6208C990.336 44.7768 992.326 42.3458 994.88 40.6354C997.434 38.925 1000.44 38.0121 1003.51 38.0121C1007.62 38.0121 1011.57 39.6493 1014.48 42.5639C1017.39 45.4786 1019.03 49.4322 1019.04 53.5562V53.5562Z" stroke="#130D2A" stroke-width="3" stroke-linecap="round" stroke-linejoin="round"/>
<path d="M1011.59 53.5562C1011.59 55.1574 1011.11 56.7227 1010.23 58.054C1009.34 59.3854 1008.08 60.4231 1006.6 61.0358C1005.12 61.6486 1003.5 61.8089 1001.93 61.4965C1000.36 61.1841 998.925 60.4131 997.795 59.2809C996.665 58.1486 995.896 56.7061 995.584 55.1356C995.272 53.5652 995.432 51.9374 996.044 50.458C996.655 48.9787 997.691 47.7143 999.02 46.8247C1000.35 45.9351 1001.91 45.4603 1003.51 45.4603C1005.65 45.4603 1007.71 46.3133 1009.22 47.8316C1010.74 49.3498 1011.59 51.409 1011.59 53.5562V53.5562Z" stroke="#130D2A" stroke-width="3" stroke-linecap="round" stroke-linejoin="round"/>
<path d="M1227.82 2.51355L1277.69 52.6001" stroke="#130D2A" stroke-width="3" stroke-linecap="round" stroke-linejoin="round"/>
<path d="M1276.55 2.51355L1226.55 52.6001" stroke="#130D2A" stroke-width="3" stroke-linecap="round" stroke-linejoin="round"/>
<path d="M1176.68 2.51355L1226.55 52.6001" stroke="#130D2A" stroke-width="3" stroke-linecap="round" stroke-linejoin="round"/>
<path d="M1225.42 2.51355L1175.42 52.6001" stroke="#130D2A" stroke-width="3" stroke-linecap="round" stroke-linejoin="round"/>
<path d="M1125.54 2.51355L1175.42 52.6001" stroke="#130D2A" stroke-width="3" stroke-linecap="round" stroke-linejoin="round"/>
<path d="M1174.29 2.51355L1124.28 52.6001" stroke="#130D2A" stroke-width="3" stroke-linecap="round" stroke-linejoin="round"/>
<path d="M1077.36 5.47437L1124.28 52.6001" stroke="#130D2A" stroke-width="3" stroke-linecap="round" stroke-linejoin="round"/>
<path d="M1123.16 2.51355L1073.14 52.6001" stroke="#130D2A" stroke-width="3" stroke-linecap="round" stroke-linejoin="round"/>
<path d="M1003.51 69.933V123.859" stroke="#130D2A" stroke-width="3" stroke-linecap="round" stroke-linejoin="round"/>
<path d="M1003.51 123.859L982.579 144.847" stroke="#130D2A" stroke-width="3" stroke-linecap="round" stroke-linejoin="round"/>
<path d="M1003.51 123.859L1024.45 144.847" stroke="#130D2A" stroke-width="3" stroke-linecap="round" stroke-linejoin="round"/>
<path d="M1047.75 145.957H959.265V173.853H1047.75V145.957Z" stroke="#130D2A" stroke-width="3" stroke-linecap="round" stroke-linejoin="round"/>
<path d="M985.211 159.913C985.211 161.465 984.751 162.983 983.891 164.274C983.03 165.564 981.807 166.57 980.375 167.165C978.944 167.759 977.369 167.914 975.85 167.611C974.33 167.308 972.935 166.561 971.839 165.463C970.744 164.365 969.998 162.967 969.696 161.444C969.393 159.922 969.548 158.343 970.141 156.909C970.734 155.475 971.738 154.249 973.026 153.387C974.314 152.524 975.829 152.064 977.378 152.064C979.455 152.064 981.448 152.891 982.917 154.363C984.386 155.835 985.211 157.831 985.211 159.913Z" stroke="#130D2A" stroke-width="3" stroke-linecap="round" stroke-linejoin="round"/>
<path d="M1011.34 159.913C1011.34 161.465 1010.88 162.983 1010.02 164.274C1009.16 165.564 1007.94 166.57 1006.51 167.165C1005.07 167.759 1003.5 167.914 1001.98 167.611C1000.46 167.308 999.065 166.561 997.969 165.463C996.874 164.365 996.128 162.967 995.826 161.444C995.523 159.922 995.679 158.343 996.271 156.909C996.864 155.475 997.868 154.249 999.156 153.387C1000.44 152.524 1001.96 152.064 1003.51 152.064C1005.59 152.064 1007.58 152.891 1009.05 154.363C1010.52 155.835 1011.34 157.831 1011.34 159.913Z" stroke="#130D2A" stroke-width="3" stroke-linecap="round" stroke-linejoin="round"/>
<path d="M1037.47 159.913C1037.47 161.465 1037.01 162.983 1036.15 164.274C1035.29 165.564 1034.07 166.57 1032.64 167.165C1031.2 167.759 1029.63 167.914 1028.11 167.611C1026.59 167.308 1025.2 166.561 1024.1 165.463C1023 164.365 1022.26 162.967 1021.96 161.444C1021.65 159.922 1021.81 158.343 1022.4 156.909C1022.99 155.475 1024 154.249 1025.29 153.387C1026.57 152.524 1028.09 152.064 1029.64 152.064C1031.72 152.064 1033.71 152.891 1035.18 154.363C1036.65 155.835 1037.47 157.831 1037.47 159.913Z" stroke="#130D2A" stroke-width="3" stroke-linecap="round" stroke-linejoin="round"/>
<path d="M226.755 205.666H201.179V317.019H226.755V205.666Z" stroke="#130D2A" stroke-width="3" stroke-linecap="round" stroke-linejoin="round"/>
<path d="M226.755 205.666H213.967V317.019H226.755V205.666Z" stroke="#130D2A" stroke-width="3" stroke-linecap="round" stroke-linejoin="round"/>
<path d="M214.151 329.587L226.755 317.004H214.151H213.967H201.363L213.967 329.587V329.772L214.059 329.68L214.151 329.772V329.587Z" fill="#4078FF" stroke="#130D2A" stroke-width="3" stroke-linejoin="round"/>
<path d="M214.013 182.782C210.646 182.782 207.417 184.122 205.036 186.508C202.655 188.894 201.317 192.13 201.317 195.504H226.724C226.724 193.832 226.395 192.176 225.756 190.632C225.117 189.087 224.181 187.684 223 186.503C221.82 185.321 220.418 184.384 218.876 183.746C217.334 183.107 215.681 182.78 214.013 182.782V182.782Z" fill="#4078FF" stroke="#130D2A" stroke-width="3" stroke-linejoin="round"/>
<path d="M226.724 195.504H201.179V205.666H226.755V195.504H226.724Z" stroke="#130D2A" stroke-width="3" stroke-linecap="round" stroke-linejoin="round"/>
<path d="M1011.88 528.129V502.238H1020.28C1021.62 502.236 1022.94 502.498 1024.18 503.009C1025.41 503.521 1026.53 504.272 1027.48 505.219C1028.42 506.165 1029.17 507.29 1029.68 508.528C1030.19 509.765 1030.46 511.092 1030.45 512.431V517.936C1030.45 520.639 1029.38 523.232 1027.47 525.144C1025.57 527.055 1022.98 528.129 1020.28 528.129H1011.88Z" stroke="#130D2A" stroke-width="3" stroke-linecap="round" stroke-linejoin="round"/>
<path d="M947.062 526.834V491.196C947.062 477.611 942.353 480.572 988.15 480.572C991.266 480.572 994.352 481.187 997.231 482.382C1000.11 483.577 1002.73 485.328 1004.93 487.536C1007.13 489.744 1008.88 492.366 1010.07 495.251C1011.27 498.136 1011.88 501.228 1011.88 504.35V525.569C1011.88 528.691 1011.27 531.782 1010.07 534.667C1008.88 537.551 1007.13 540.171 1004.93 542.378C1002.72 544.585 1000.11 546.335 997.23 547.528C994.351 548.721 991.266 549.335 988.15 549.333C941.891 549.333 947.647 552.124 947.108 539.571L947.062 526.834Z" stroke="#130D2A" stroke-width="3" stroke-linecap="round" stroke-linejoin="round"/>
<path d="M946.923 499.863H917.423" stroke="#130D2A" stroke-width="3" stroke-linecap="round" stroke-linejoin="round"/>
<path d="M946.923 530.041H917.423" stroke="#130D2A" stroke-width="3" stroke-linecap="round" stroke-linejoin="round"/>
<path d="M88.0089 443.824C88.0089 443.599 88.0981 443.383 88.2568 443.224C88.4155 443.065 88.6308 442.976 88.8553 442.976H95.9034C96.1293 442.976 96.3462 443.065 96.5074 443.223C96.6686 443.382 96.7611 443.598 96.7652 443.824V460.324C96.7611 460.551 96.6686 460.766 96.5074 460.925C96.3462 461.083 96.1293 461.172 95.9034 461.172H88.8553C88.6308 461.172 88.4155 461.083 88.2568 460.924C88.0981 460.765 88.0089 460.549 88.0089 460.324" stroke="#130D2A" stroke-width="3" stroke-linecap="round" stroke-linejoin="round"/>
<path d="M3.15474 430.655C2.92886 430.659 2.71359 430.751 2.55529 430.913C2.39699 431.074 2.30831 431.292 2.30835 431.518V472.63C2.30831 472.856 2.39699 473.074 2.55529 473.235C2.71359 473.397 2.92886 473.489 3.15474 473.493H42.0578V430.655H3.15474Z" fill="#4078FF" stroke="#130D2A" stroke-width="3" stroke-miterlimit="10"/>
<path d="M86.9317 430.655H42.0577V473.493H86.9317C87.1602 473.493 87.3794 473.402 87.5411 473.24C87.7027 473.078 87.7935 472.859 87.7935 472.63V431.518C87.7935 431.289 87.7027 431.069 87.5411 430.907C87.3794 430.746 87.1602 430.655 86.9317 430.655Z" stroke="#130D2A" stroke-width="3" stroke-miterlimit="10"/>
<path d="M354.252 102.795C354.255 97.7271 352.38 92.839 348.991 89.0781C345.601 85.3171 340.939 82.9513 335.908 82.4392C335.333 73.4899 331.645 65.0259 325.485 58.5199C319.326 52.0138 311.085 47.8775 302.197 46.8304C293.309 45.7833 284.336 47.8918 276.839 52.7891C269.342 57.6863 263.795 65.0624 261.164 73.6339C254.808 74.2293 248.925 77.2577 244.74 82.089C240.554 86.9203 238.389 93.1825 238.694 99.5729C239 105.963 241.752 111.99 246.379 116.398C251.005 120.807 257.15 123.258 263.534 123.242H333.938C339.333 123.214 344.497 121.047 348.303 117.216C352.109 113.385 354.248 108.2 354.252 102.795V102.795Z" fill="#E8F2FC" stroke="#130D2A" stroke-width="3" stroke-miterlimit="10"/>
<path d="M799 597.333C799.002 594.689 798.028 592.139 796.269 590.177C794.51 588.215 792.09 586.981 789.478 586.713C789.179 582.045 787.265 577.629 784.067 574.235C780.87 570.841 776.593 568.683 771.979 568.137C767.365 567.591 762.707 568.691 758.815 571.245C754.924 573.8 752.045 577.648 750.679 582.12C747.379 582.43 744.325 584.01 742.153 586.531C739.98 589.051 738.856 592.318 739.015 595.652C739.173 598.986 740.602 602.13 743.004 604.429C745.405 606.729 748.595 608.008 751.909 608H788.455C791.256 607.985 793.937 606.855 795.912 604.856C797.888 602.858 798.998 600.153 799 597.333V597.333Z" fill="#E8F2FC" stroke="#130D2A" stroke-width="3" stroke-miterlimit="10"/>
<path d="M771.352 132.495C771.354 129.17 770.124 125.964 767.901 123.496C765.677 121.029 762.619 119.477 759.318 119.141C758.934 113.274 756.511 107.728 752.47 103.466C748.429 99.2033 743.026 96.4941 737.199 95.8087C731.372 95.1232 725.49 96.5049 720.574 99.7136C715.658 102.922 712.019 107.755 710.289 113.373C706.135 113.779 702.296 115.77 699.566 118.933C696.836 122.096 695.424 126.19 695.621 130.368C695.819 134.545 697.611 138.487 700.628 141.377C703.645 144.267 707.655 145.885 711.828 145.895H757.995C761.538 145.887 764.933 144.472 767.436 141.961C769.94 139.449 771.348 136.045 771.352 132.495V132.495Z" fill="#E8F2FC" stroke="#130D2A" stroke-width="3" stroke-linejoin="round"/>
<path d="M289.749 609.858C289.751 606.533 288.521 603.327 286.298 600.859C284.074 598.392 281.016 596.84 277.715 596.503C277.331 590.637 274.908 585.091 270.867 580.829C266.826 576.566 261.423 573.857 255.596 573.172C249.769 572.486 243.887 573.868 238.971 577.077C234.055 580.285 230.416 585.118 228.686 590.736C224.533 591.142 220.693 593.133 217.963 596.296C215.233 599.459 213.821 603.553 214.018 607.731C214.216 611.908 216.009 615.85 219.025 618.74C222.042 621.63 226.052 623.248 230.225 623.258H276.392C279.935 623.25 283.33 621.835 285.834 619.323C288.337 616.812 289.745 613.408 289.749 609.858V609.858Z" fill="#E8F2FC" stroke="#130D2A" stroke-width="3" stroke-linejoin="round"/>
<path d="M1078.01 244.218C1078.01 253.368 1075.3 262.312 1070.23 269.92C1065.15 277.528 1057.94 283.457 1049.51 286.959C1041.07 290.46 1031.79 291.376 1022.83 289.591C1013.88 287.806 1005.65 283.4 999.194 276.93C992.738 270.46 988.341 262.217 986.56 253.243C984.778 244.269 985.693 234.968 989.187 226.514C992.681 218.061 998.598 210.836 1006.19 205.752C1013.78 200.669 1022.71 197.956 1031.84 197.956C1044.08 197.956 1055.83 202.83 1064.48 211.506C1073.14 220.182 1078.01 231.949 1078.01 244.218Z" stroke="#130D2A" stroke-width="3" stroke-linecap="round" stroke-linejoin="round"/>
<path d="M1000.52 244.218C1000.52 244.666 1000.39 245.105 1000.14 245.477C999.893 245.85 999.54 246.141 999.126 246.312C998.713 246.484 998.258 246.529 997.819 246.441C997.38 246.354 996.977 246.138 996.661 245.821C996.345 245.504 996.129 245.1 996.042 244.66C995.955 244.221 995.999 243.765 996.171 243.351C996.342 242.936 996.632 242.582 997.004 242.333C997.376 242.084 997.813 241.951 998.261 241.951C998.861 241.951 999.436 242.19 999.86 242.615C1000.28 243.04 1000.52 243.617 1000.52 244.218V244.218Z" fill="#130D2A"/>
<path d="M1066.97 244.218C1066.97 244.67 1066.84 245.113 1066.6 245.49C1066.35 245.868 1065.99 246.162 1065.58 246.338C1065.16 246.513 1064.7 246.56 1064.26 246.474C1063.82 246.387 1063.41 246.171 1063.09 245.853C1062.77 245.534 1062.55 245.128 1062.46 244.684C1062.37 244.241 1062.42 243.782 1062.59 243.364C1062.76 242.946 1063.05 242.588 1063.43 242.337C1063.8 242.085 1064.24 241.951 1064.69 241.951C1064.99 241.949 1065.29 242.006 1065.56 242.119C1065.84 242.232 1066.09 242.399 1066.3 242.61C1066.52 242.82 1066.68 243.071 1066.8 243.347C1066.91 243.623 1066.97 243.919 1066.97 244.218V244.218Z" fill="#130D2A"/>
<path d="M1009.57 223.924L1032.44 244.357" stroke="#130D2A" stroke-width="3" stroke-linecap="round" stroke-linejoin="round"/>
<path d="M1045.52 228.936L1031.67 243.987L1030.81 242.938" stroke="#130D2A" stroke-width="3" stroke-linecap="round" stroke-linejoin="round"/>
<path d="M1034.13 209.599C1034.13 210.047 1034 210.485 1033.75 210.858C1033.5 211.231 1033.15 211.521 1032.74 211.693C1032.32 211.864 1031.87 211.909 1031.43 211.822C1030.99 211.734 1030.59 211.518 1030.27 211.201C1029.95 210.884 1029.74 210.48 1029.65 210.041C1029.56 209.601 1029.61 209.145 1029.78 208.731C1029.95 208.317 1030.24 207.963 1030.61 207.714C1030.98 207.465 1031.42 207.332 1031.87 207.332C1032.47 207.332 1033.05 207.57 1033.47 207.996C1033.89 208.421 1034.13 208.997 1034.13 209.599V209.599Z" fill="#130D2A"/>
<path d="M1034.13 278.514C1034.13 278.962 1034 279.4 1033.75 279.773C1033.5 280.146 1033.15 280.436 1032.74 280.608C1032.32 280.78 1031.87 280.824 1031.43 280.737C1030.99 280.65 1030.59 280.434 1030.27 280.117C1029.95 279.8 1029.74 279.396 1029.65 278.956C1029.56 278.516 1029.61 278.06 1029.78 277.646C1029.95 277.232 1030.24 276.878 1030.61 276.629C1030.98 276.38 1031.42 276.247 1031.87 276.247C1032.47 276.247 1033.05 276.486 1033.47 276.911C1033.89 277.336 1034.13 277.912 1034.13 278.514V278.514Z" fill="#130D2A"/>
<path d="M1037.21 244.218C1037.21 245.258 1036.9 246.275 1036.33 247.139C1035.75 248.004 1034.93 248.678 1033.97 249.076C1033.01 249.474 1031.96 249.578 1030.94 249.375C1029.92 249.173 1028.99 248.672 1028.25 247.936C1027.52 247.201 1027.02 246.264 1026.82 245.244C1026.61 244.224 1026.72 243.167 1027.11 242.206C1027.51 241.245 1028.18 240.424 1029.05 239.846C1029.91 239.268 1030.92 238.96 1031.96 238.96C1033.35 238.96 1034.69 239.514 1035.67 240.5C1036.66 241.486 1037.21 242.823 1037.21 244.218Z" fill="#130D2A"/>
<path d="M95.5802 249.168L35.7175 309.155V120.76H223.723L160.244 184.386L95.5802 249.168ZM136.115 169.181L156.797 148.532H63.4483V242.105L80.376 225.143L136.115 169.181Z" fill="#4078FF" stroke="#130D2A" stroke-width="3" stroke-linejoin="round"/>
<path d="M201.179 123.073V132.618" stroke="#130D2A" stroke-width="3" stroke-linecap="round" stroke-linejoin="round"/>
<path d="M185.944 123.073V132.618" stroke="#130D2A" stroke-width="3" stroke-linecap="round" stroke-linejoin="round"/>
<path d="M170.693 123.073V132.618" stroke="#130D2A" stroke-width="3" stroke-linecap="round" stroke-linejoin="round"/>
<path d="M155.443 123.073V132.618" stroke="#130D2A" stroke-width="3" stroke-linecap="round" stroke-linejoin="round"/>
<path d="M140.192 123.073V132.618" stroke="#130D2A" stroke-width="3" stroke-linecap="round" stroke-linejoin="round"/>
<path d="M124.958 123.073V132.618" stroke="#130D2A" stroke-width="3" stroke-linecap="round" stroke-linejoin="round"/>
<path d="M109.707 123.073V132.618" stroke="#130D2A" stroke-width="3" stroke-linecap="round" stroke-linejoin="round"/>
<path d="M94.4568 123.073V132.618" stroke="#130D2A" stroke-width="3" stroke-linecap="round" stroke-linejoin="round"/>
<path d="M79.2065 123.073V132.618" stroke="#130D2A" stroke-width="3" stroke-linecap="round" stroke-linejoin="round"/>
<path d="M63.9715 123.073V132.618" stroke="#130D2A" stroke-width="3" stroke-linecap="round" stroke-linejoin="round"/>
<path d="M48.7211 123.073V132.618" stroke="#130D2A" stroke-width="3" stroke-linecap="round" stroke-linejoin="round"/>
<path d="M170.816 213.808C170.819 222.913 168.127 231.813 163.081 239.384C158.034 246.954 150.86 252.855 142.465 256.338C134.071 259.821 124.835 260.731 115.924 258.952C107.014 257.174 98.8303 252.786 92.4091 246.345C85.9879 239.904 81.6178 231.699 79.8516 222.769C78.0855 213.838 79.0028 204.583 82.4874 196.175C85.972 187.767 91.8673 180.584 99.4273 175.534C106.987 170.485 115.872 167.796 124.958 167.808C137.124 167.821 148.789 172.672 157.388 181.298C165.986 189.923 170.816 201.616 170.816 213.808V213.808Z" fill="white" stroke="#130D2A" stroke-width="3" stroke-linecap="round" stroke-linejoin="round"/>
<path d="M131.529 239.468C137.402 238.229 142.671 235.003 146.452 230.333C150.234 225.662 152.298 219.831 152.298 213.816C152.298 207.802 150.234 201.97 146.452 197.3C142.671 192.629 137.402 189.403 131.529 188.164" stroke="#130D2A" stroke-width="3" stroke-linecap="round" stroke-linejoin="round"/>
<path d="M131.529 239.468L134.052 231.804" stroke="#130D2A" stroke-width="3" stroke-linecap="round" stroke-linejoin="round"/>
<path d="M131.529 239.469L138.176 244.033" stroke="#130D2A" stroke-width="3" stroke-linecap="round" stroke-linejoin="round"/>
<path d="M120.495 188.133C114.622 189.372 109.353 192.598 105.571 197.269C101.79 201.939 99.7257 207.771 99.7257 213.785C99.7257 219.8 101.79 225.631 105.571 230.302C109.353 234.972 114.622 238.198 120.495 239.438" stroke="#130D2A" stroke-width="3" stroke-linecap="round" stroke-linejoin="round"/>
<path d="M120.495 188.164L117.956 195.828" stroke="#130D2A" stroke-width="3" stroke-linecap="round" stroke-linejoin="round"/>
<path d="M120.495 188.164L113.847 183.599" stroke="#130D2A" stroke-width="3" stroke-linecap="round" stroke-linejoin="round"/>
<path d="M295.466 194.548L327.013 163.167H253.685L285.233 194.548C286.597 195.894 288.435 196.648 290.349 196.648C292.264 196.648 294.102 195.894 295.466 194.548V194.548Z" fill="#D8DBD7"/>
<path d="M295.466 201.904C294.1 203.259 292.256 204.019 290.334 204.019C288.412 204.019 286.568 203.259 285.202 201.904L253.655 170.522V211.11C253.655 212.836 254.339 214.491 255.557 215.711C256.775 216.932 258.426 217.617 260.149 217.617H320.504C321.358 217.619 322.204 217.453 322.994 217.126C323.783 216.8 324.501 216.321 325.106 215.717C325.711 215.112 326.19 214.394 326.518 213.604C326.845 212.813 327.013 211.966 327.013 211.11V170.522L295.466 201.904Z" fill="#D8DBD7"/>
<path d="M1217.11 543.226C1217.11 544.367 1216.65 545.461 1215.85 546.268C1215.04 547.075 1213.95 547.528 1212.81 547.528H1172.94C1171.8 547.528 1170.71 547.075 1169.9 546.268C1169.1 545.461 1168.65 544.367 1168.65 543.226V516.409H1217.11V543.226Z" stroke="#130D2A" stroke-width="3" stroke-linecap="round" stroke-linejoin="round"/>
<path d="M1196.27 537.15C1195.37 538.048 1194.15 538.551 1192.88 538.551C1191.6 538.551 1190.38 538.048 1189.48 537.15L1168.65 516.409V543.226C1168.65 544.367 1169.1 545.461 1169.9 546.268C1170.71 547.075 1171.8 547.528 1172.94 547.528H1212.81C1213.95 547.528 1215.04 547.075 1215.85 546.268C1216.65 545.461 1217.11 544.367 1217.11 543.226V516.409L1196.27 537.15Z" stroke="#130D2A" stroke-width="3" stroke-linecap="round" stroke-linejoin="round"/>
<path d="M860.931 144.847V186.097H868.24V150.907L860.931 144.847Z" fill="#D8DBD7"/>
<path d="M878.136 135.918V186.097H888.908L889.015 147.623L878.136 135.918Z" fill="#D8DBD7"/>
<path d="M902.034 132.587V186.097H917.408V139.141L902.034 132.587Z" fill="#D8DBD7"/>
<path d="M871.011 72.9554V33.0157C871.017 31.921 870.806 30.836 870.392 29.8231C869.978 28.8101 869.368 27.8894 868.597 27.1139C867.826 26.3384 866.909 25.7235 865.9 25.3046C864.89 24.8857 863.808 24.6711 862.716 24.6731H815.718C813.518 24.6731 811.409 25.5488 809.853 27.1076C808.298 28.6663 807.424 30.7805 807.424 32.9849V135.702C807.424 137.907 808.298 140.021 809.853 141.58C811.409 143.138 813.518 144.014 815.718 144.014H851.436" stroke="#130D2A" stroke-width="3" stroke-linecap="round" stroke-linejoin="round"/>
<path d="M807.424 119.881H851.436V73.4026L870.995 72.9554V39.4462H807.424V119.881Z" fill="#4078FF" stroke="#130D2A" stroke-width="3" stroke-linejoin="round"/>
<path d="M839.217 135.918C838.359 135.918 837.52 135.663 836.806 135.185C836.092 134.708 835.536 134.028 835.208 133.234C834.879 132.439 834.793 131.565 834.961 130.721C835.128 129.878 835.541 129.103 836.148 128.495C836.755 127.886 837.529 127.472 838.37 127.305C839.212 127.137 840.085 127.223 840.878 127.552C841.671 127.881 842.348 128.438 842.825 129.154C843.302 129.869 843.557 130.71 843.557 131.57C843.553 132.722 843.094 133.825 842.281 134.64C841.468 135.455 840.367 135.914 839.217 135.918V135.918Z" fill="#130D2A"/>
<path d="M917.423 73.4027H851.436V186.082H917.423V73.4027Z" stroke="#130D2A" stroke-width="3" stroke-linecap="round" stroke-linejoin="round"/>
<path d="M866.255 81.7145H859.069V88.916H866.255V81.7145Z" fill="#130D2A"/>
<path d="M876.52 81.7145H869.333V88.916H876.52V81.7145Z" fill="#130D2A"/>
<path d="M866.255 91.5066H859.069V98.7081H866.255V91.5066Z" fill="#130D2A"/>
<path d="M876.52 91.5066H869.333V98.7081H876.52V91.5066Z" fill="#130D2A"/>
<path d="M851.436 150.907L860.931 144.847L868.24 150.907L878.243 135.918L889.015 147.623L902.096 132.587L917.408 139.141" stroke="#130D2A" stroke-width="3" stroke-linecap="round" stroke-linejoin="round"/>
<path d="M563.11 562.687C563.501 561.539 563.607 560.312 563.419 559.114C563.23 557.915 562.753 556.781 562.029 555.809C561.304 554.836 560.354 554.056 559.261 553.535C558.167 553.014 556.963 552.767 555.754 552.817H553.492C552.294 552.863 551.119 552.48 550.177 551.737C549.235 550.994 548.588 549.939 548.352 548.762C547.698 545.373 546.777 542.042 545.597 538.8C545.117 537.615 545.06 536.3 545.436 535.078C545.812 533.856 546.597 532.801 547.659 532.092L549.321 531.059C550.942 529.972 552.081 528.298 552.499 526.389C552.917 524.48 552.582 522.483 551.564 520.816C550.546 519.148 548.924 517.94 547.038 517.444C545.151 516.947 543.146 517.201 541.442 518.152L539.903 519.108C538.891 519.747 537.686 520.008 536.501 519.845C535.316 519.681 534.226 519.103 533.424 518.213C531.022 515.471 528.392 512.938 525.561 510.642C524.613 509.875 523.963 508.8 523.721 507.604C523.48 506.407 523.662 505.164 524.237 504.088L525.053 502.546C525.953 500.786 526.13 498.743 525.546 496.855C524.962 494.966 523.665 493.38 521.93 492.438C520.195 491.495 518.162 491.27 516.264 491.81C514.365 492.351 512.753 493.613 511.772 495.329L510.972 496.871C510.386 497.929 509.454 498.753 508.332 499.202C507.211 499.652 505.969 499.7 504.817 499.338C501.506 498.266 498.114 497.462 494.675 496.933C493.42 496.785 492.255 496.201 491.384 495.283C490.513 494.364 489.989 493.17 489.905 491.906V490.117C489.878 489.125 489.657 488.147 489.254 487.241C488.851 486.334 488.273 485.516 487.555 484.833C486.836 484.15 485.99 483.615 485.065 483.26C484.14 482.904 483.154 482.735 482.164 482.761C481.174 482.788 480.199 483.009 479.294 483.413C478.389 483.817 477.572 484.396 476.891 485.116C476.209 485.836 475.676 486.684 475.321 487.611C474.966 488.538 474.797 489.526 474.824 490.518V492.492C474.87 493.699 474.497 494.886 473.767 495.848C473.037 496.81 471.996 497.488 470.823 497.766C467.453 498.528 464.149 499.56 460.943 500.85C459.788 501.364 458.489 501.453 457.275 501.1C456.061 500.748 455.011 499.976 454.31 498.922L453.11 496.979C452.033 495.342 450.363 494.188 448.452 493.762C446.542 493.336 444.541 493.671 442.873 494.696C441.204 495.721 439.999 497.356 439.511 499.256C439.024 501.155 439.292 503.17 440.26 504.874L441.599 507.064C442.223 508.176 442.448 509.468 442.235 510.726C442.022 511.984 441.385 513.13 440.43 513.973C438.072 516.216 435.886 518.634 433.889 521.205C433.151 522.202 432.084 522.904 430.878 523.186C429.672 523.468 428.405 523.313 427.303 522.747L424.717 521.328C422.958 520.371 420.892 520.154 418.973 520.724C417.054 521.293 415.439 522.604 414.484 524.366C413.529 526.129 413.312 528.2 413.88 530.123C414.449 532.046 415.756 533.664 417.515 534.621L420.409 536.163C421.505 536.821 422.344 537.833 422.789 539.032C423.234 540.232 423.257 541.548 422.855 542.763C421.951 545.822 421.282 548.946 420.855 552.108C420.684 553.306 420.096 554.404 419.195 555.208C418.294 556.013 417.137 556.471 415.93 556.503L412.253 556.611C410.553 556.657 408.92 557.277 407.617 558.372C406.315 559.467 405.421 560.972 405.081 562.64" stroke="#130D2A" stroke-width="3" stroke-linecap="round" stroke-linejoin="round"/>
<path d="M405.481 562C405.09 563.148 404.984 564.375 405.172 565.573C405.361 566.772 405.838 567.906 406.562 568.878C407.287 569.85 408.237 570.631 409.33 571.152C410.424 571.673 411.627 571.919 412.837 571.869H415.099C416.297 571.824 417.472 572.207 418.414 572.95C419.356 573.693 420.003 574.747 420.239 575.925C420.893 579.313 421.814 582.644 422.994 585.887C423.474 587.072 423.531 588.386 423.155 589.609C422.779 590.831 421.994 591.886 420.932 592.595L419.27 593.628C417.649 594.715 416.51 596.388 416.092 598.297C415.674 600.207 416.009 602.204 417.027 603.871C418.045 605.538 419.667 606.747 421.553 607.243C423.44 607.74 425.445 607.486 427.149 606.535L428.688 605.579C429.7 604.939 430.905 604.678 432.09 604.842C433.275 605.006 434.365 605.583 435.166 606.473C437.569 609.216 440.199 611.749 443.03 614.045C443.978 614.812 444.628 615.887 444.87 617.083C445.111 618.279 444.929 619.523 444.354 620.599L443.538 622.141C442.638 623.901 442.461 625.943 443.045 627.832C443.628 629.721 444.926 631.306 446.661 632.249C448.395 633.192 450.429 633.417 452.327 632.876C454.226 632.336 455.838 631.073 456.819 629.358L457.619 627.816C458.205 626.757 459.137 625.934 460.259 625.484C461.38 625.035 462.622 624.987 463.774 625.348C467.085 626.42 470.477 627.225 473.916 627.754C475.171 627.902 476.336 628.486 477.207 629.404C478.078 630.322 478.601 631.517 478.686 632.781V634.57C478.712 635.562 478.934 636.54 479.337 637.446C479.74 638.353 480.317 639.171 481.036 639.854C481.755 640.537 482.601 641.072 483.526 641.427C484.451 641.783 485.437 641.952 486.427 641.926C487.417 641.899 488.392 641.678 489.297 641.274C490.202 640.87 491.019 640.291 491.7 639.571C492.382 638.85 492.915 638.003 493.27 637.076C493.625 636.149 493.794 635.161 493.767 634.169V632.195C493.721 630.988 494.094 629.801 494.824 628.839C495.554 627.877 496.595 627.199 497.768 626.921C501.138 626.158 504.442 625.127 507.648 623.837C508.803 623.322 510.102 623.234 511.316 623.586C512.53 623.939 513.58 624.711 514.281 625.765L515.481 627.708C516.558 629.345 518.228 630.499 520.139 630.925C522.049 631.351 524.05 631.016 525.718 629.991C527.387 628.965 528.592 627.33 529.08 625.431C529.567 623.532 529.299 621.517 528.331 619.812L526.992 617.623C526.367 616.511 526.143 615.218 526.356 613.961C526.569 612.703 527.206 611.557 528.161 610.714C530.519 608.47 532.705 606.053 534.702 603.482C535.44 602.485 536.507 601.783 537.713 601.501C538.919 601.218 540.186 601.374 541.288 601.94L543.873 603.358C545.633 604.315 547.699 604.533 549.618 603.963C551.537 603.394 553.152 602.083 554.107 600.32C555.062 598.558 555.279 596.487 554.711 594.564C554.142 592.641 552.835 591.023 551.075 590.066L548.182 588.524C547.086 587.866 546.247 586.854 545.802 585.654C545.357 584.454 545.334 583.139 545.736 581.924C546.64 578.864 547.309 575.74 547.736 572.579C547.907 571.381 548.495 570.283 549.396 569.478C550.297 568.674 551.454 568.215 552.661 568.184L556.338 568.076C558.038 568.03 559.671 567.409 560.974 566.314C562.276 565.22 563.17 563.715 563.51 562.046" stroke="#130D2A" stroke-width="3" stroke-linecap="round" stroke-linejoin="round"/>
<path d="M508.679 562.687C508.909 557.335 507.322 552.063 504.178 547.73C501.034 543.397 496.518 540.26 491.366 538.829C486.215 537.398 480.731 537.758 475.81 539.85C470.889 541.942 466.82 545.644 464.267 550.35C462.206 554.123 461.221 558.391 461.42 562.687C461.221 558.391 462.206 554.123 464.267 550.35C466.82 545.644 470.889 541.942 475.81 539.85C480.731 537.758 486.215 537.398 491.366 538.829C496.518 540.26 501.034 543.397 504.178 547.73C507.322 552.063 508.909 557.335 508.679 562.687" stroke="#130D2A" stroke-width="3" stroke-linecap="round" stroke-linejoin="round"/>
<path d="M461.417 562C461.188 567.352 462.774 572.624 465.918 576.957C469.062 581.29 473.578 584.427 478.73 585.858C483.881 587.289 489.365 586.929 494.286 584.837C499.208 582.745 503.276 579.043 505.829 574.337C507.89 570.564 508.875 566.296 508.676 562C508.875 566.296 507.89 570.564 505.829 574.337C503.276 579.043 499.208 582.745 494.286 584.837C489.365 586.929 483.881 587.289 478.73 585.858C473.578 584.427 469.062 581.29 465.918 576.957C462.774 572.624 461.188 567.352 461.417 562" stroke="#130D2A" stroke-width="3" stroke-linecap="round" stroke-linejoin="round"/>
<path d="M846.665 495.746L842.818 487.233H815.549L811.702 495.746L810.163 499.138H848.189L846.665 495.746Z" fill="#4078FF" stroke="#130D2A" stroke-width="3" stroke-linejoin="round"/>
<path d="M848.189 499.138H810.163L804.792 511.058H853.575L848.189 499.138Z" stroke="#130D2A" stroke-width="3" stroke-linecap="round" stroke-linejoin="round"/>
<path d="M834.293 468.328H824.074L815.549 487.233H842.818L834.293 468.328Z" stroke="#130D2A" stroke-width="3" stroke-linecap="round" stroke-linejoin="round"/>
<path d="M853.575 511.058H804.792L799.421 522.963H858.946L853.575 511.058Z" fill="#4078FF" stroke="#130D2A" stroke-width="3" stroke-linejoin="round"/>
<path d="M799.421 522.963L794.22 534.467H829.184H864.147L858.946 522.963H799.421Z" stroke="#130D2A" stroke-width="3" stroke-linecap="round" stroke-linejoin="round"/>
<path d="M872.072 539.124C872.072 540.351 871.586 541.528 870.72 542.395C869.854 543.263 868.68 543.75 867.456 543.75H790.988C789.764 543.75 788.59 543.263 787.724 542.395C786.858 541.528 786.372 540.351 786.372 539.124C786.372 537.897 786.858 536.72 787.724 535.853C788.59 534.985 789.764 534.498 790.988 534.498H867.533C868.757 534.498 869.931 534.985 870.797 535.853C871.663 536.72 872.149 537.897 872.149 539.124H872.072Z" stroke="#130D2A" stroke-width="3" stroke-linecap="round" stroke-linejoin="round"/>
<path d="M92.5179 309.355V341.06C92.5239 345.728 90.8895 350.248 87.9012 353.829L64.8179 381.139C63.6309 382.548 62.8702 384.268 62.6255 386.096C62.3807 387.925 62.6621 389.785 63.4364 391.458C64.2107 393.131 65.4458 394.548 66.9964 395.542C68.5469 396.536 70.3485 397.065 72.1892 397.068H140.039C141.879 397.065 143.681 396.536 145.231 395.542C146.782 394.548 148.017 393.131 148.791 391.458C149.566 389.785 149.847 387.925 149.602 386.096C149.358 384.268 148.597 382.548 147.41 381.139L124.327 353.829C121.333 350.252 119.697 345.729 119.71 341.06V309.355" stroke="#130D2A" stroke-width="3" stroke-linecap="round" stroke-linejoin="round"/>
<path d="M130.282 366.751H81.8226L67.6187 383.575C66.8892 384.435 66.4211 385.487 66.2697 386.606C66.1183 387.724 66.2899 388.863 66.7644 389.887C67.2388 390.911 67.9962 391.777 68.9467 392.383C69.8972 392.989 71.0011 393.309 72.1276 393.306H140.039C141.165 393.309 142.269 392.989 143.22 392.383C144.17 391.777 144.927 390.911 145.402 389.887C145.876 388.863 146.048 387.724 145.897 386.606C145.745 385.487 145.277 384.435 144.548 383.575L130.282 366.751Z" fill="#E8F2FC"/>
<path d="M124.942 305.562C124.942 306.568 124.543 307.533 123.833 308.244C123.123 308.956 122.161 309.355 121.157 309.355H90.9328C90.4164 309.388 89.8987 309.315 89.4117 309.14C88.9247 308.964 88.4788 308.691 88.1014 308.336C87.724 307.981 87.4232 307.553 87.2176 307.077C87.012 306.601 86.9059 306.088 86.9059 305.569C86.9059 305.051 87.012 304.538 87.2176 304.062C87.4232 303.586 87.724 303.158 88.1014 302.803C88.4788 302.448 88.9247 302.175 89.4117 301.999C89.8987 301.824 90.4164 301.751 90.9328 301.784H121.157C122.158 301.784 123.118 302.181 123.828 302.889C124.538 303.597 124.938 304.558 124.942 305.562V305.562Z" stroke="#130D2A" stroke-width="3" stroke-linecap="round" stroke-linejoin="round"/>
<path d="M923.733 447.71C923.744 445.178 922.969 442.705 921.516 440.633C920.062 438.561 918.002 436.994 915.621 436.147C913.239 435.3 910.654 435.216 908.223 435.906C905.791 436.596 903.634 438.027 902.05 440C900.463 438.03 898.305 436.602 895.873 435.914C893.442 435.225 890.857 435.31 888.476 436.156C886.095 437.002 884.035 438.568 882.579 440.638C881.124 442.707 880.346 445.178 880.352 447.71C880.352 458.504 896.417 467.957 901.573 468.636C901.884 468.682 902.2 468.682 902.511 468.636C907.667 467.957 923.733 458.551 923.733 447.71Z" stroke="#130D2A" stroke-width="3" stroke-linecap="round" stroke-linejoin="round"/>
<path d="M1139.19 100.111H1107.11C1092.86 100.111 1081.31 111.683 1081.31 125.956V157.538C1081.31 171.812 1092.86 183.383 1107.11 183.383H1139.19C1153.44 183.383 1164.98 171.812 1164.98 157.538V125.956C1164.98 111.683 1153.44 100.111 1139.19 100.111Z" fill="#4078FF" stroke="#130D2A" stroke-width="3" stroke-linejoin="round"/>
<path d="M1150.01 141.747C1150.01 147.073 1148.43 152.278 1145.48 156.706C1142.53 161.134 1138.33 164.585 1133.42 166.622C1128.51 168.66 1123.11 169.193 1117.9 168.155C1112.69 167.116 1107.9 164.551 1104.14 160.786C1100.38 157.02 1097.83 152.223 1096.79 147C1095.75 141.777 1096.28 136.364 1098.32 131.444C1100.35 126.524 1103.79 122.319 1108.21 119.36C1112.63 116.402 1117.83 114.823 1123.14 114.823C1130.27 114.823 1137.1 117.659 1142.14 122.709C1147.18 127.758 1150.01 134.607 1150.01 141.747Z" fill="white" stroke="#130D2A" stroke-width="3" stroke-linecap="round" stroke-linejoin="round"/>
<path d="M1144.78 130.12C1144.78 130.86 1144.89 131.662 1144.89 132.372C1144.89 135.642 1144.25 138.881 1143 141.903C1141.75 144.926 1139.92 147.672 1137.62 149.986C1135.31 152.3 1132.57 154.136 1129.56 155.39C1126.54 156.643 1123.31 157.289 1120.05 157.291C1110.72 157.291 1102.81 150.815 1098.5 143.212C1099.33 155.734 1110.09 167.176 1123.05 167.176C1127.37 167.17 1131.62 166.032 1135.38 163.876C1139.13 161.719 1142.25 158.619 1144.44 154.88C1146.63 151.142 1147.81 146.896 1147.86 142.562C1147.91 138.227 1146.83 133.955 1144.73 130.166L1144.78 130.12Z" fill="#D8DBD7"/>
<path d="M1130.08 159.157C1130.09 159.236 1130.08 159.316 1130.06 159.391C1130.03 159.467 1129.99 159.535 1129.93 159.59C1129.88 159.646 1129.81 159.687 1129.73 159.711C1129.66 159.735 1129.58 159.741 1129.5 159.728H1116.8C1116.72 159.741 1116.64 159.735 1116.57 159.711C1116.49 159.687 1116.42 159.646 1116.37 159.59C1116.31 159.535 1116.27 159.467 1116.24 159.391C1116.21 159.316 1116.21 159.236 1116.22 159.157V157.183C1116.21 157.104 1116.21 157.023 1116.24 156.948C1116.27 156.872 1116.31 156.803 1116.37 156.747C1116.42 156.69 1116.49 156.647 1116.57 156.622C1116.64 156.596 1116.72 156.587 1116.8 156.597H1121.17V139.727H1116.8C1116.72 139.737 1116.64 139.729 1116.57 139.703C1116.49 139.677 1116.42 139.634 1116.37 139.578C1116.31 139.521 1116.27 139.452 1116.24 139.377C1116.21 139.301 1116.21 139.221 1116.22 139.141V137.244C1116.21 137.166 1116.21 137.085 1116.24 137.01C1116.27 136.935 1116.31 136.867 1116.37 136.812C1116.42 136.756 1116.49 136.715 1116.57 136.691C1116.64 136.667 1116.72 136.661 1116.8 136.674H1129.54C1129.62 136.661 1129.7 136.667 1129.78 136.691C1129.85 136.715 1129.92 136.756 1129.98 136.812C1130.04 136.867 1130.08 136.935 1130.1 137.01C1130.13 137.085 1130.14 137.166 1130.13 137.244V139.218C1130.14 139.298 1130.13 139.378 1130.1 139.454C1130.08 139.53 1130.03 139.598 1129.98 139.655C1129.92 139.711 1129.85 139.754 1129.78 139.78C1129.7 139.806 1129.62 139.814 1129.54 139.804H1125.17V156.675H1129.54C1129.62 156.664 1129.7 156.673 1129.78 156.699C1129.85 156.725 1129.92 156.767 1129.98 156.824C1130.03 156.88 1130.08 156.949 1130.1 157.025C1130.13 157.101 1130.14 157.181 1130.13 157.261L1130.08 159.157Z" fill="#130D2A"/>
<path d="M1128 128.563C1128 129.514 1127.72 130.444 1127.2 131.236C1126.67 132.027 1125.92 132.643 1125.04 133.008C1124.16 133.372 1123.2 133.467 1122.27 133.281C1121.33 133.096 1120.48 132.638 1119.81 131.965C1119.14 131.292 1118.68 130.435 1118.49 129.501C1118.31 128.568 1118.4 127.601 1118.77 126.721C1119.13 125.842 1119.75 125.091 1120.54 124.562C1121.32 124.034 1122.25 123.751 1123.2 123.751C1124.48 123.751 1125.7 124.258 1126.6 125.161C1127.5 126.063 1128 127.287 1128 128.563V128.563Z" stroke="#130D2A" stroke-width="3" stroke-linecap="round" stroke-linejoin="round"/>
<path d="M1200.33 101.607V118.955C1200.33 121.183 1199.89 123.389 1199.04 125.447C1198.19 127.505 1196.95 129.375 1195.37 130.95C1193.8 132.525 1191.94 133.775 1189.88 134.627C1187.83 135.48 1185.63 135.918 1183.4 135.918H1164.94" stroke="#130D2A" stroke-width="3" stroke-linecap="round" stroke-linejoin="round"/>
<path d="M1213.87 101.607H1186.88V74.5592H1213.87V101.607Z" stroke="#130D2A" stroke-width="3" stroke-linecap="round" stroke-linejoin="round"/>
<path d="M917.992 602.048H891V575H917.992V602.048Z" stroke="#130D2A" stroke-width="3" stroke-linecap="round" stroke-linejoin="round"/>
<path d="M1245.25 129.735V147.083C1245.25 151.582 1243.47 155.896 1240.29 159.077C1237.12 162.259 1232.81 164.046 1228.32 164.046H1164.94" stroke="#130D2A" stroke-width="3" stroke-linecap="round" stroke-linejoin="round"/>
<path d="M1258.76 129.735H1231.76V102.687H1258.76V129.735Z" stroke="#130D2A" stroke-width="3" stroke-linecap="round" stroke-linejoin="round"/>
<path d="M962.881 630.175H935.874V603.127H962.881V630.175Z" stroke="#4078FF" stroke-width="3" stroke-linecap="round" stroke-linejoin="round"/>
<path d="M762.627 386.089C780.177 386.089 797.008 393.075 809.417 405.51C821.827 417.946 828.799 434.812 828.799 452.398" stroke="#130D2A" stroke-width="3" stroke-linecap="round" stroke-linejoin="round" stroke-dasharray="10 10"/>
<path d="M838.094 228.982H805.562C788.012 228.982 771.181 221.996 758.771 209.561C746.361 197.125 739.39 180.259 739.39 162.673" stroke="#130D2A" stroke-width="3" stroke-linecap="round" stroke-linejoin="round" stroke-dasharray="10 10"/>
<path d="M698.424 359.303C713.352 359.303 725.447 388.016 725.447 423.407C725.447 445.304 720.831 464.596 713.767 476.161C712.484 478.551 711.848 481.236 711.92 483.949V505.198C711.92 512.678 709.874 513.726 707.057 513.85H713.336C722.739 513.85 730.372 514.621 730.372 505.198V483.995C730.417 482.44 730.839 480.918 731.6 479.562C732.361 478.206 733.439 477.055 734.742 476.208C745.987 468.45 754.46 457.291 758.923 444.363C763.385 431.435 763.604 417.415 759.546 404.353C755.488 391.291 747.367 379.873 736.37 371.767C725.373 363.662 712.076 359.294 698.424 359.303V359.303Z" fill="#D8DBD7"/>
<path d="M762.396 423.453C762.401 412.416 759.562 401.565 754.154 391.95C748.746 382.335 740.952 374.282 731.527 368.571C722.103 362.86 711.366 359.684 700.357 359.35C689.348 359.017 678.439 361.537 668.688 366.668C658.936 371.798 650.671 379.365 644.693 388.635C638.716 397.905 635.228 408.565 634.568 419.582C633.908 430.599 636.097 441.6 640.924 451.52C645.752 461.441 653.053 469.944 662.122 476.207C663.42 477.058 664.494 478.211 665.252 479.566C666.01 480.922 666.43 482.441 666.477 483.995V505.245C666.477 514.667 674.171 513.896 683.528 513.896H713.351C722.754 513.896 730.387 514.667 730.387 505.245V483.995C730.433 482.439 730.854 480.918 731.616 479.562C732.377 478.206 733.455 477.055 734.757 476.207C743.289 470.32 750.264 462.442 755.079 453.251C759.894 444.06 762.405 433.833 762.396 423.453V423.453Z" stroke="#130D2A" stroke-width="3" stroke-linecap="round" stroke-linejoin="round"/>
<path d="M711.705 450.47V497.272" stroke="#130D2A" stroke-width="3" stroke-linecap="round" stroke-linejoin="round"/>
<path d="M684.297 446.075V497.272" stroke="#130D2A" stroke-width="3" stroke-linecap="round" stroke-linejoin="round"/>
<path d="M683.497 445.829C681.635 447.259 679.46 448.224 677.152 448.644C674.843 449.064 672.468 448.926 670.224 448.242C667.979 447.559 665.929 446.348 664.245 444.712C662.56 443.076 661.289 441.06 660.537 438.833C659.785 436.606 659.574 434.232 659.921 431.907C660.268 429.582 661.163 427.373 662.532 425.464C663.901 423.555 665.704 422 667.793 420.929C669.881 419.858 672.195 419.301 674.541 419.305C682.774 419.305 688.899 424.964 697.624 434.155C707.273 443.932 712.367 448.866 720.477 448.866C722.821 448.865 725.132 448.305 727.218 447.23C729.303 446.156 731.103 444.599 732.468 442.689C733.833 440.779 734.725 438.57 735.069 436.246C735.412 433.921 735.198 431.548 734.444 429.323C733.691 427.098 732.418 425.086 730.734 423.452C729.049 421.817 726.999 420.609 724.756 419.927C722.512 419.245 720.138 419.108 717.831 419.528C715.524 419.948 713.35 420.913 711.489 422.343" stroke="#130D2A" stroke-width="3" stroke-linecap="round" stroke-linejoin="round"/>
<path d="M716.075 528.299C716.075 533.221 714.124 537.941 710.651 541.422C707.178 544.902 702.467 546.857 697.555 546.857C692.643 546.857 687.932 544.902 684.459 541.422C680.986 537.941 679.034 533.221 679.034 528.299C679.034 518.059 687.344 518.183 697.501 518.183C707.658 518.183 716.075 518.136 716.075 528.299Z" fill="white" stroke="#130D2A" stroke-width="3" stroke-linecap="round" stroke-linejoin="round"/>
<path d="M666.462 491.058V510.904C666.47 514.132 667.756 517.225 670.039 519.504C672.321 521.782 675.413 523.06 678.634 523.056H718.23C721.451 523.06 724.543 521.782 726.825 519.504C729.108 517.225 730.394 514.132 730.402 510.904V491.058H666.462Z" fill="white" stroke="#130D2A" stroke-width="3" stroke-linecap="round" stroke-linejoin="round"/>
<path d="M186.009 534.279L148 566.5L156 574L175 557.5L193 541L186.009 534.279Z" fill="#D8DBD7"/>
</g>
<defs>
<clipPath id="clip0">
<rect width="1280" height="649" fill="white"/>
</clipPath>
</defs>
</svg>
