<svg width="115" height="110" viewBox="0 0 115 110" fill="none" xmlns="http://www.w3.org/2000/svg">
<path d="M0 10C0 4.47715 4.47715 0 10 0H105C110.523 0 115 4.47715 115 10V100C115 105.523 110.523 110 105 110H10C4.47715 110 0 105.523 0 100V10Z" fill="#E8F2FC"/>
<g clip-path="url(#clip0)">
<path d="M68.7422 62.5577C68.7422 61.3202 67.7386 60.3165 66.5011 60.3165C65.2635 60.3165 64.2599 61.3202 64.2599 62.5577V64.2348H68.7422V62.5577Z" fill="#4078FF"/>
<path d="M74.16 80.083C76.2918 80.0668 78.0152 78.3396 78.0271 76.2072V52.1103C78.0164 49.9761 76.2936 48.2465 74.16 48.2264H29.842C27.7128 48.2483 25.9988 49.9811 26 52.1103V76.2072C26 78.3346 27.7146 80.0643 29.842 80.083H74.16ZM62.3389 62.5576C62.3389 60.259 64.2024 58.3955 66.5011 58.3955C68.7998 58.3955 70.6632 60.259 70.6632 62.5576V65.2259C70.6651 65.476 70.5657 65.7162 70.3868 65.8913C70.2086 66.0663 69.9666 66.162 69.7171 66.1558H63.3138C63.0605 66.1633 62.8154 66.0688 62.6322 65.8944C62.449 65.7193 62.3433 65.4792 62.3389 65.2259V62.5576ZM45.5977 69.3574H58.4043C58.9365 69.3618 59.3655 69.7952 59.3648 70.3273C59.3642 74.3944 56.0663 77.6911 51.9998 77.6899C47.9327 77.6893 44.6366 74.3919 44.6372 70.3248C44.6366 69.7933 45.0655 69.3606 45.5977 69.3574V69.3574ZM33.3638 62.5576C33.3638 60.259 35.2273 58.3955 37.526 58.3955C39.8247 58.3955 41.6882 60.259 41.6882 62.5576V65.2259C41.6669 65.7581 41.2204 66.1727 40.6883 66.1558H34.2849C34.0373 66.1608 33.7991 66.0645 33.6246 65.8888C33.4501 65.713 33.3563 65.4735 33.3638 65.2259V62.5576Z" fill="#4078FF"/>
<path d="M52.001 75.7608C54.6374 75.7633 56.8961 73.8742 57.3588 71.2784H46.6426C47.1054 73.8742 49.3641 75.7633 52.001 75.7608Z" fill="#4078FF"/>
<path d="M39.7672 62.5577C39.7672 61.3202 38.7635 60.3165 37.526 60.3165C36.2885 60.3165 35.2849 61.3202 35.2849 62.5577V64.2348H39.7672V62.5577Z" fill="#4078FF"/>
<path d="M79.948 55.0588V73.2588C84.6035 72.7667 88.1373 68.8403 88.1373 64.1585C88.1373 59.4773 84.6035 55.5509 79.948 55.0588V55.0588Z" fill="#4078FF"/>
<path d="M42.3285 42.5166V46.3055H61.6986V42.5166C61.7086 42.1552 61.4328 41.85 61.0726 41.8231H42.9294C42.5767 41.8231 42.3285 42.1633 42.3285 42.5166Z" fill="#4078FF"/>
<path d="M84.0176 30.1702C80.6897 30.1714 77.9876 32.8591 77.9683 36.1864C77.9683 39.1761 80.2682 41.663 82.9896 42.1245V55.4302H84.9106V42.1245C88.0085 41.643 90.2171 38.8616 89.9832 35.7349C89.7494 32.6083 87.153 30.1864 84.0176 30.1702V30.1702Z" fill="#4078FF"/>
<path d="M51.9335 35.2598C51.4032 35.2598 50.973 35.6894 50.973 36.2203V40.8627H52.894V36.2203C52.894 35.6894 52.4638 35.2598 51.9335 35.2598Z" fill="#4078FF"/>
</g>
<defs>
<clipPath id="clip0">
<rect width="64" height="64" fill="white" transform="translate(26 23)"/>
</clipPath>
</defs>
</svg>
