<svg width="75" height="75" viewBox="0 0 75 75" fill="none" xmlns="http://www.w3.org/2000/svg">
<path d="M0 10C0 4.47715 4.47715 0 10 0H65C70.5229 0 75 4.47715 75 10V65C75 70.5228 70.5228 75 65 75H10C4.47715 75 0 70.5228 0 65V10Z" fill="#E8F2FC"/>
<g clip-path="url(#clip0)">
<path d="M52.056 22.6356H21.944C18.6668 22.6356 16 25.3024 16 28.5804V47.4197C16 50.6976 18.6668 53.3645 21.944 53.3645H52.056C55.3332 53.3645 58 50.6976 58 47.4197V28.5804C58 25.3024 55.3332 22.6356 52.056 22.6356V22.6356ZM31.2422 32.0929L24.989 38.3462L30.5499 43.9071C31.0306 44.3878 31.0306 45.1671 30.5499 45.647C30.07 46.1277 29.2907 46.1277 28.81 45.647L22.3788 39.2157C21.898 38.735 21.898 37.9565 22.3788 37.4758L29.5015 30.3531C29.9822 29.8724 30.7615 29.8724 31.2422 30.3531C31.7221 30.8329 31.7221 31.6122 31.2422 32.0929V32.0929ZM41.392 29.1981L34.8852 47.6215C34.6588 48.2629 33.9558 48.5984 33.3152 48.372C32.6745 48.1456 32.3382 47.4426 32.5646 46.802L39.0713 28.3786C39.2977 27.7379 39.9999 27.4016 40.6414 27.628C41.282 27.8544 41.6184 28.5574 41.392 29.1981V29.1981ZM51.6212 38.5242L44.4985 45.647C44.0178 46.1277 43.2385 46.1277 42.7578 45.647C42.2779 45.1671 42.2779 44.3878 42.7578 43.9071L49.011 37.6538L43.4501 32.0929C42.9694 31.6122 42.9694 30.8329 43.4501 30.3531C43.93 29.8724 44.7093 29.8724 45.19 30.3531L51.6212 36.7843C52.102 37.265 52.102 38.0435 51.6212 38.5242V38.5242Z" fill="#4078FF"/>
</g>
<defs>
<clipPath id="clip0">
<rect width="42" height="42" fill="white" transform="translate(16 17)"/>
</clipPath>
</defs>
</svg>
