<svg width="42" height="42" viewBox="0 0 42 42" fill="none" xmlns="http://www.w3.org/2000/svg">
<path d="M0 5C0 2.23858 2.23858 0 5 0H37C39.7614 0 42 2.23858 42 5V37C42 39.7614 39.7614 42 37 42H5C2.23858 42 0 39.7614 0 37V5Z" fill="#E8F2FC"/>
<path d="M21.6942 24.0317C21.4675 24.1734 21.2125 24.2301 20.9858 24.2301C20.7591 24.2301 20.5041 24.1734 20.2774 24.0317L9 17.1462V26.2986C9 28.2537 10.5868 29.8405 12.5419 29.8405H29.4581C31.4132 29.8405 33 28.2537 33 26.2986V17.1462L21.6942 24.0317Z" fill="#4078FF"/>
<path d="M29.4581 12.1595H12.5419C10.8701 12.1595 9.45337 13.3496 9.11334 14.9363L21.0142 22.1902L32.8867 14.9363C32.5466 13.3496 31.1299 12.1595 29.4581 12.1595Z" fill="#4078FF"/>
</svg>
