<svg width="75" height="75" viewBox="0 0 75 75" fill="none" xmlns="http://www.w3.org/2000/svg">
<path d="M0 10C0 4.47715 4.47715 0 10 0H65C70.5229 0 75 4.47715 75 10V65C75 70.5228 70.5228 75 65 75H10C4.47715 75 0 70.5228 0 65V10Z" fill="#E8F2FC"/>
<path d="M49.0742 52.7656C49.0742 54.8011 50.7301 56.457 52.7656 56.457C54.8011 56.457 56.457 54.8011 56.457 52.7656C56.457 51.1636 55.4252 49.8105 53.9961 49.3009V41.4648C55.4252 40.9551 56.457 39.6021 56.457 38C56.457 36.3979 55.4252 35.0449 53.9961 34.5352V26.6991C55.4252 26.1895 56.457 24.8364 56.457 23.2344C56.457 21.1989 54.8011 19.543 52.7656 19.543C50.7301 19.543 49.0742 21.1989 49.0742 23.2344C49.0742 24.8364 50.106 26.1895 51.5352 26.6991V34.5352C50.106 35.0449 49.0742 36.3979 49.0742 38C49.0742 39.6021 50.106 40.9551 51.5352 41.4648V49.3009C50.106 49.8105 49.0742 51.1636 49.0742 52.7656Z" fill="#4078FF"/>
<path d="M45.3828 46.6133H25.6953C25.0152 46.6133 24.4648 47.1636 24.4648 47.8438V57.7695C24.4648 58.4497 25.0152 59 25.6953 59H45.3828C46.0629 59 46.6133 58.4497 46.6133 57.7695V47.8438C46.6133 47.1636 46.0629 46.6133 45.3828 46.6133ZM30.6172 53.9961C29.9376 53.9961 29.3867 53.4452 29.3867 52.7656C29.3867 52.0859 29.9376 51.5352 30.6172 51.5352C31.2967 51.5352 31.8477 52.0859 31.8477 52.7656C31.8477 53.4452 31.2967 53.9961 30.6172 53.9961ZM40.4609 53.9961H35.5391C34.8589 53.9961 34.3086 53.4457 34.3086 52.7656C34.3086 52.0855 34.8589 51.5352 35.5391 51.5352H40.4609C41.1411 51.5352 41.6914 52.0855 41.6914 52.7656C41.6914 53.4457 41.1411 53.9961 40.4609 53.9961Z" fill="#4078FF"/>
<path d="M19.543 33.0781V42.9219C19.543 43.602 20.0933 44.1523 20.7734 44.1523H45.3828C46.0629 44.1523 46.6133 43.602 46.6133 42.9219V33.0781C46.6133 32.398 46.0629 31.8477 45.3828 31.8477H20.7734C20.0933 31.8477 19.543 32.398 19.543 33.0781ZM30.6172 36.7695H40.4609C41.1411 36.7695 41.6914 37.3199 41.6914 38C41.6914 38.6801 41.1411 39.2305 40.4609 39.2305H30.6172C29.9371 39.2305 29.3867 38.6801 29.3867 38C29.3867 37.3199 29.9371 36.7695 30.6172 36.7695ZM25.6953 36.7695C26.3749 36.7695 26.9258 37.3203 26.9258 38C26.9258 38.6795 26.3749 39.2305 25.6953 39.2305C25.0158 39.2305 24.4648 38.6795 24.4648 38C24.4648 37.3203 25.0158 36.7695 25.6953 36.7695Z" fill="#4078FF"/>
<path d="M45.3828 29.3867C46.0629 29.3867 46.6133 28.8364 46.6133 28.1562V18.2305C46.6133 17.5503 46.0629 17 45.3828 17H25.6953C25.0152 17 24.4648 17.5503 24.4648 18.2305V28.1562C24.4648 28.8364 25.0152 29.3867 25.6953 29.3867H45.3828ZM35.5391 22.0039H40.4609C41.1411 22.0039 41.6914 22.5543 41.6914 23.2344C41.6914 23.9145 41.1411 24.4648 40.4609 24.4648H35.5391C34.8589 24.4648 34.3086 23.9145 34.3086 23.2344C34.3086 22.5543 34.8589 22.0039 35.5391 22.0039ZM30.6172 22.0039C31.2967 22.0039 31.8477 22.5547 31.8477 23.2344C31.8477 23.9139 31.2967 24.4648 30.6172 24.4648C29.9376 24.4648 29.3867 23.9139 29.3867 23.2344C29.3867 22.5547 29.9376 22.0039 30.6172 22.0039Z" fill="#4078FF"/>
</svg>
