<svg width="20" height="20" viewBox="0 0 20 20" fill="none" xmlns="http://www.w3.org/2000/svg">
<path d="M18.7833 5.34998C18.6843 4.95449 18.4827 4.59212 18.1989 4.29948C17.915 4.00685 17.559 3.7943 17.1667 3.68331C15.7333 3.33331 10 3.33331 10 3.33331C10 3.33331 4.26666 3.33331 2.83333 3.71665C2.44104 3.82763 2.08498 4.04018 1.80112 4.33282C1.51726 4.62546 1.31566 4.98782 1.21666 5.38331C0.954344 6.83794 0.826028 8.31357 0.833332 9.79165C0.823981 11.2808 0.952305 12.7677 1.21666 14.2333C1.3258 14.6165 1.53192 14.9651 1.81512 15.2454C2.09832 15.5257 2.44902 15.7282 2.83333 15.8333C4.26666 16.2166 10 16.2166 10 16.2166C10 16.2166 15.7333 16.2166 17.1667 15.8333C17.559 15.7223 17.915 15.5098 18.1989 15.2171C18.4827 14.9245 18.6843 14.5621 18.7833 14.1666C19.0436 12.723 19.1719 11.2586 19.1667 9.79165C19.176 8.30244 19.0477 6.81556 18.7833 5.34998V5.34998Z" stroke="#FF0000" stroke-width="1.5" stroke-linecap="round" stroke-linejoin="round"/>
<path d="M8.125 12.5167L12.9167 9.79165L8.125 7.06665V12.5167Z" stroke="#FF0000" stroke-width="1.5" stroke-linecap="round" stroke-linejoin="round"/>
</svg>
