<svg width="115" height="110" viewBox="0 0 115 110" fill="none" xmlns="http://www.w3.org/2000/svg">
<path d="M0 10C0 4.47715 4.47715 0 10 0H105C110.523 0 115 4.47715 115 10V100C115 105.523 110.523 110 105 110H10C4.47715 110 0 105.523 0 100V10Z" fill="#E8F2FC"/>
<path d="M43.5 23H48.5V30.5H43.5V23Z" fill="#4078FF"/>
<path d="M34.75 23H39.75V30.5H34.75V23Z" fill="#4078FF"/>
<path d="M31 23.0355C28.1915 23.3476 26 25.7347 26 28.625V30.5H31V23.0355Z" fill="#4078FF"/>
<path d="M84.375 23H52.25V30.5H90V28.625C90 25.5234 87.4766 23 84.375 23Z" fill="#4078FF"/>
<path d="M26 81.375C26 84.4766 28.5234 87 31.625 87H84.375C87.4766 87 90 84.4766 90 81.375V34.25H26V81.375ZM74.9243 56.8257C74.192 56.0935 74.192 54.9064 74.9243 54.1741C75.6565 53.4419 76.8436 53.4419 77.5759 54.1741L82.5759 59.1741C83.3081 59.9064 83.3081 61.0935 82.5759 61.8257L77.5759 66.8257C76.8436 67.558 75.6565 67.558 74.9243 66.8257C74.192 66.0935 74.192 64.9064 74.9243 64.1741L78.5984 60.5L74.9243 56.8257ZM44.75 41.75C44.75 40.7145 45.5895 39.875 46.625 39.875H69.375C70.4105 39.875 71.25 40.7145 71.25 41.75V79.25C71.25 80.2855 70.4105 81.125 69.375 81.125H46.625C45.5895 81.125 44.75 80.2855 44.75 79.25V41.75ZM33.4243 59.1741L38.4242 54.1741C39.1565 53.4419 40.3436 53.4419 41.0759 54.1741C41.8081 54.9064 41.8081 56.0935 41.0759 56.8257L37.4016 60.5L41.0759 64.1743C41.8081 64.9065 41.8081 66.0936 41.0759 66.8259C40.3436 67.5581 39.1565 67.5581 38.4242 66.8259L33.4243 61.8259C32.692 61.0936 32.692 59.9064 33.4243 59.1741V59.1741Z" fill="#4078FF"/>
<path d="M48.5 43.625H67.5V77.375H48.5V43.625Z" fill="#4078FF"/>
</svg>
