<svg width="115" height="110" viewBox="0 0 115 110" fill="none" xmlns="http://www.w3.org/2000/svg">
<path d="M0 10C0 4.47715 4.47715 0 10 0H105C110.523 0 115 4.47715 115 10V100C115 105.523 110.523 110 105 110H10C4.47715 110 0 105.523 0 100V10Z" fill="#E8F2FC"/>
<path d="M68.25 23H45.75C42.6483 23 40.125 25.5233 40.125 28.625V40.125C40.125 43.2267 42.6483 45.75 45.75 45.75H68.25C71.3517 45.75 73.875 43.2267 73.875 40.125V28.625C73.875 25.5233 71.3517 23 68.25 23Z" fill="#4078FF"/>
<path d="M85.25 68.25H81.5V66.375C81.5 63.2733 78.9767 60.75 75.875 60.75H58.875V56.9875C59.228 56.9875 64.167 56.9875 64.5 56.9875C65.5364 56.9875 66.375 56.1614 66.375 55.125C66.375 54.0886 65.5364 53.25 64.5 53.25H62.625V49.5H51.375V53.25H49.5C48.4636 53.25 47.625 54.0886 47.625 55.125C47.625 56.1614 48.4636 56.9875 49.5 56.9875C49.853 56.9875 54.792 56.9875 55.125 56.9875V60.75H38.125C35.0233 60.75 32.5 63.2733 32.5 66.375V68.25H28.75C26.6789 68.25 25 69.9289 25 72V75.75C25 77.8209 26.6789 79.5 28.75 79.5H32.5V83.25H30.625C29.5886 83.25 28.75 84.0886 28.75 85.125C28.75 86.1614 29.5886 87 30.625 87H38.125C39.1614 87 40 86.1614 40 85.125C40 84.0886 39.1614 83.25 38.125 83.25H36.25V79.5H40C42.0711 79.5 43.75 77.8209 43.75 75.75V72C43.75 69.9289 42.0711 68.25 40 68.25H36.25V66.375C36.25 65.3405 37.0905 64.5 38.125 64.5H55.125V68.25H51.375C49.3039 68.25 47.625 69.9289 47.625 72V75.75C47.625 77.8209 49.3039 79.5 51.375 79.5H55.125V83.25H53.25C52.2136 83.25 51.375 84.0886 51.375 85.125C51.375 86.1614 52.2136 87 53.25 87H60.75C61.7864 87 62.625 86.1614 62.625 85.125C62.625 84.0886 61.7864 83.25 60.75 83.25H58.875V79.5H62.625C64.6961 79.5 66.375 77.8209 66.375 75.75V72C66.375 69.9289 64.6961 68.25 62.625 68.25H58.875V64.5H75.875C76.9095 64.5 77.75 65.3405 77.75 66.375V68.25H74C71.9289 68.25 70.25 69.9289 70.25 72V75.75C70.25 77.8209 71.9289 79.5 74 79.5H77.75V83.25H75.875C74.8386 83.25 74 84.0886 74 85.125C74 86.1614 74.8386 87 75.875 87H83.375C84.4114 87 85.25 86.1614 85.25 85.125C85.25 84.0886 84.4114 83.25 83.375 83.25H81.5V79.5H85.25C87.3211 79.5 89 77.8209 89 75.75V72C89 69.9289 87.3211 68.25 85.25 68.25Z" fill="#4078FF"/>
</svg>
