<svg width="115" height="110" viewBox="0 0 115 110" fill="none" xmlns="http://www.w3.org/2000/svg">
<path d="M0 10C0 4.47715 4.47715 0 10 0H105C110.523 0 115 4.47715 115 10V100C115 105.523 110.523 110 105 110H10C4.47715 110 0 105.523 0 100V10Z" fill="#E8F2FC"/>
<g clip-path="url(#clip0)">
<path d="M57.0818 22.875L29.3752 38.875V70.8746L57.0818 86.8751L84.7889 70.8746V38.875L57.0818 22.875ZM45.676 59.212C46.0665 59.6025 46.0665 60.2356 45.6761 60.6261L44.4368 61.8656C44.0463 62.2562 43.4131 62.2562 43.0225 61.8656L36.7395 55.5822C36.349 55.1916 36.349 54.5585 36.7395 54.168L43.0226 47.8849C43.4131 47.4944 44.0463 47.4944 44.4368 47.8849L45.6759 49.124C46.0664 49.5145 46.0664 50.1477 45.6759 50.5382L42.0462 54.168C41.6557 54.5585 41.6557 55.1916 42.0462 55.5822L45.676 59.212ZM54.7912 63.6525C54.5442 64.1465 53.9435 64.3467 53.4495 64.0997L51.8819 63.3159C51.388 63.0689 51.1877 62.4683 51.4347 61.9743L59.3729 46.0976C59.6198 45.6036 60.2205 45.4034 60.7145 45.6504L62.2821 46.4342C62.7761 46.6812 62.9763 47.2818 62.7293 47.7758L54.7912 63.6525ZM71.1414 61.8653C70.7509 62.2558 70.1178 62.2558 69.7272 61.8654L67.7805 59.919L72.1178 55.5822C72.5083 55.1917 72.5083 54.5585 72.1178 54.1679L68.4877 50.5382C68.0972 50.1477 68.0971 49.5145 68.4877 49.124L69.7272 47.8844C70.1178 47.4939 70.7509 47.4939 71.1415 47.8844L77.4246 54.168C77.8151 54.5585 77.8151 55.1916 77.4245 55.5821L71.1414 61.8653Z" fill="#4078FF"/>
</g>
<defs>
<clipPath id="clip0">
<rect x="25" y="23" width="64" height="64" rx="32" fill="white"/>
</clipPath>
</defs>
</svg>
