<svg width="75" height="75" viewBox="0 0 75 75" fill="none" xmlns="http://www.w3.org/2000/svg">
<path d="M0 10C0 4.47715 4.47715 0 10 0H65C70.5229 0 75 4.47715 75 10V65C75 70.5228 70.5228 75 65 75H10C4.47715 75 0 70.5228 0 65V10Z" fill="#E8F2FC"/>
<path d="M41.7877 52.7025V53.9296C41.7877 54.9062 41.0704 55.7185 40.137 55.8568L39.8346 56.9716C39.6704 57.5765 39.1259 58 38.4951 58H35.4963C34.8654 58 34.321 57.5765 34.1568 56.9716L33.863 55.8568C32.921 55.7099 32.2037 54.9062 32.2037 53.921V52.6938C32.2037 52.037 32.7309 51.5099 33.3877 51.5099H40.6037C41.2605 51.5185 41.7877 52.0457 41.7877 52.7025ZM47.3445 36.1617C47.3445 38.9531 46.2383 41.4852 44.4408 43.3432C43.0753 44.7605 42.1938 46.5667 41.9 48.4938C41.7704 49.3235 41.0531 49.937 40.2062 49.937H33.7852C32.9469 49.937 32.221 49.3321 32.1 48.5025C31.7975 46.5753 30.9074 44.7432 29.542 43.3346C27.779 41.5025 26.6815 39.0136 26.6556 36.2741C26.5951 30.5185 31.1753 25.8605 36.9309 25.8173C42.6778 25.7741 47.3445 30.4235 47.3445 36.1617ZM38.1667 29.8963C38.1667 29.2568 37.6482 28.7296 37 28.7296C32.8864 28.7296 29.5333 32.0741 29.5333 36.1963C29.5333 36.8358 30.0519 37.363 30.7 37.363C31.3395 37.363 31.8667 36.8444 31.8667 36.1963C31.8667 33.3617 34.1741 31.063 37 31.063C37.6482 31.063 38.1667 30.5444 38.1667 29.8963ZM37 22.421C37.6395 22.421 38.1667 21.9025 38.1667 21.2543V17.1667C38.1667 16.5272 37.6482 16 37 16C36.3519 16 35.8333 16.5185 35.8333 17.1667V21.2543C35.8333 21.9025 36.3605 22.421 37 22.421ZM23.2679 36.1531C23.2679 35.5136 22.7494 34.9864 22.1012 34.9864H18.0136C17.3741 34.9864 16.8469 35.5049 16.8469 36.1531C16.8469 36.7926 17.3654 37.3198 18.0136 37.3198H22.1012C22.7494 37.3198 23.2679 36.8012 23.2679 36.1531ZM55.9864 34.9864H51.8988C51.2593 34.9864 50.7321 35.5049 50.7321 36.1531C50.7321 36.7926 51.2506 37.3198 51.8988 37.3198H55.9864C56.6259 37.3198 57.1531 36.8012 57.1531 36.1531C57.1531 35.5136 56.6346 34.9864 55.9864 34.9864ZM25.6445 45.8667L22.7494 48.7617C22.2914 49.2198 22.2914 49.9543 22.7494 50.4123C22.9741 50.637 23.2766 50.7494 23.5704 50.7494C23.8642 50.7494 24.1667 50.637 24.3914 50.4123L27.2864 47.5173C27.7445 47.0593 27.7445 46.3247 27.2864 45.8667C26.837 45.4086 26.0938 45.4086 25.6445 45.8667ZM47.5346 26.7852C47.8284 26.7852 48.1309 26.6728 48.3556 26.4481L51.2506 23.5531C51.7087 23.0951 51.7087 22.3605 51.2506 21.9025C50.7926 21.4444 50.058 21.4444 49.6 21.9025L46.7049 24.7975C46.2469 25.2556 46.2469 25.9901 46.7049 26.4481C46.9383 26.6728 47.2321 26.7852 47.5346 26.7852ZM25.6445 26.4395C25.8691 26.6642 26.1716 26.7765 26.4654 26.7765C26.7593 26.7765 27.0617 26.6642 27.2864 26.4395C27.7445 25.9815 27.7445 25.2469 27.2864 24.7889L24.3914 21.8938C23.9333 21.4358 23.1988 21.4358 22.7408 21.8938C22.2827 22.3519 22.2827 23.0864 22.7408 23.5444L25.6445 26.4395ZM48.3556 45.8667C47.8975 45.4086 47.163 45.4086 46.7049 45.8667C46.2469 46.3247 46.2469 47.0593 46.7049 47.5173L49.6 50.4123C49.8247 50.637 50.1272 50.7494 50.421 50.7494C50.7148 50.7494 51.0173 50.637 51.242 50.4123C51.7 49.9543 51.7 49.2198 51.242 48.7617L48.3556 45.8667Z" fill="#4078FF"/>
</svg>
