<svg width="75" height="75" viewBox="0 0 75 75" fill="none" xmlns="http://www.w3.org/2000/svg">
<path d="M0 10C0 4.47715 4.47715 0 10 0H65C70.5229 0 75 4.47715 75 10V65C75 70.5228 70.5228 75 65 75H10C4.47715 75 0 70.5228 0 65V10Z" fill="#E8F2FC"/>
<g clip-path="url(#clip0)">
<path d="M27.6836 28.3423L24.0449 28.6234C23.0324 28.7017 22.1306 29.2323 21.5707 30.0793L17.3742 36.4261C16.9496 37.0684 16.8821 37.8723 17.1935 38.5764C17.5051 39.2806 18.1453 39.7713 18.9062 39.8891L22.2378 40.4051C23.0172 36.2691 24.8829 32.1433 27.6836 28.3423V28.3423Z" fill="#4078FF"/>
<path d="M35.5948 53.7621L36.1109 57.0938C36.2288 57.8546 36.7195 58.4949 37.4236 58.8063C37.7165 58.9359 38.0266 58.9999 38.3351 58.9999C38.7684 58.9999 39.1988 58.8737 39.5739 58.6256L45.9209 54.4293C46.7679 53.8692 47.2986 52.9674 47.3766 51.9551L47.6578 48.3163C43.8566 51.1171 39.7309 52.9828 35.5948 53.7621V53.7621Z" fill="#4078FF"/>
<path d="M34.3418 51.4529C34.4575 51.4529 34.5738 51.4434 34.6899 51.4241C36.4227 51.1343 38.0928 50.6462 39.686 50.0074L25.9927 36.314C25.3538 37.9071 24.8657 39.5773 24.576 41.3102C24.4618 41.9933 24.6909 42.6891 25.1806 43.1788L32.8212 50.8195C33.2278 51.226 33.7765 51.4529 34.3418 51.4529Z" fill="#4078FF"/>
<path d="M55.6511 35.6212C59.002 29.1429 59.1261 22.297 58.951 19.0863C58.891 17.9862 58.0139 17.1091 56.9137 17.0491C56.391 17.0206 55.7714 17 55.0731 17C51.4829 17 45.8022 17.5438 40.3788 20.349C36.0688 22.5783 30.4171 27.4871 27.0828 33.9382C27.1221 33.9689 27.1606 34.0016 27.1969 34.0378L41.9624 48.8033C41.9986 48.8396 42.0312 48.878 42.062 48.9174C48.513 45.5829 53.4218 39.9312 55.6511 35.6212V35.6212ZM41.4205 25.879C43.8191 23.4803 47.7222 23.4801 50.121 25.879C51.2831 27.041 51.923 28.586 51.923 30.2293C51.923 31.8726 51.2831 33.4177 50.121 34.5797C48.9218 35.7789 47.346 36.3786 45.7708 36.3787C44.1951 36.3788 42.62 35.7792 41.4205 34.5797C40.2584 33.4177 39.6184 31.8726 39.6184 30.2293C39.6184 28.586 40.2584 27.041 41.4205 25.879V25.879Z" fill="#4078FF"/>
<path d="M43.1605 32.8396C44.5998 34.2789 46.9417 34.279 48.381 32.8396C49.0782 32.1424 49.4622 31.2154 49.4622 30.2294C49.4622 29.2434 49.0782 28.3164 48.381 27.6192C47.6614 26.8996 46.7161 26.5398 45.7708 26.5398C44.8255 26.5398 43.8802 26.8996 43.1606 27.6192C42.4634 28.3164 42.0793 29.2434 42.0793 30.2294C42.0793 31.2154 42.4633 32.1424 43.1605 32.8396Z" fill="#4078FF"/>
<path d="M18.2555 51.6118C18.5705 51.6118 18.8854 51.4917 19.1256 51.2513L23.1429 47.234C23.6234 46.7535 23.6234 45.9744 23.1429 45.4939C22.6624 45.0133 21.8833 45.0133 21.4027 45.4939L17.3854 49.5112C16.9049 49.9917 16.9049 50.7708 17.3854 51.2513C17.6257 51.4916 17.9406 51.6118 18.2555 51.6118Z" fill="#4078FF"/>
<path d="M26.8244 49.1756C26.344 48.6951 25.5648 48.6951 25.0843 49.1756L17.3606 56.8992C16.8801 57.3798 16.8801 58.1588 17.3606 58.6394C17.6009 58.8796 17.9158 58.9997 18.2308 58.9997C18.5457 58.9997 18.8606 58.8796 19.1008 58.6393L26.8243 50.9157C27.305 50.4352 27.305 49.6561 26.8244 49.1756V49.1756Z" fill="#4078FF"/>
<path d="M28.7658 52.8572L24.7486 56.8745C24.268 57.355 24.268 58.1341 24.7486 58.6146C24.9889 58.8549 25.3038 58.9751 25.6186 58.9751C25.9334 58.9751 26.2484 58.855 26.4886 58.6146L30.5059 54.5973C30.9865 54.1168 30.9865 53.3377 30.5059 52.8572C30.0255 52.3766 29.2464 52.3766 28.7658 52.8572Z" fill="#4078FF"/>
</g>
<defs>
<clipPath id="clip0">
<rect width="42" height="42" fill="white" transform="translate(17 17)"/>
</clipPath>
</defs>
</svg>
