<svg width="91" height="91" viewBox="0 0 91 91" fill="none" xmlns="http://www.w3.org/2000/svg">
<g clip-path="url(#clip0)">
<path d="M0.0193326 63.1455C0.0193326 75.1096 9.71752 84.8077 21.6814 84.8077C33.6454 84.8077 43.3436 75.1096 43.3436 63.1455C43.3436 51.1815 33.6454 41.4835 21.6814 41.4835C19.2226 41.4835 16.869 41.9121 14.6657 42.6675C19.5405 14.7087 41.343 -3.32152 21.1322 11.5177C-1.27856 27.9728 -0.00466929 62.4835 0.0204073 63.116C0.0204073 63.1258 0.0193326 63.1346 0.0193326 63.1455Z" fill="#E8F2FC"/>
<path d="M47.6758 63.1455C47.6758 75.1096 57.3739 84.8077 69.3379 84.8077C81.3019 84.8077 91.0001 75.1096 91.0001 63.1455C91.0001 51.1815 81.3018 41.4835 69.3377 41.4835C66.8788 41.4835 64.5254 41.9121 62.3221 42.6675C67.1969 14.7087 88.9994 -3.32152 68.7886 11.5177C46.3779 27.9728 47.6516 62.4835 47.6768 63.116C47.6768 63.1258 47.6758 63.1346 47.6758 63.1455Z" fill="#E8F2FC"/>
</g>
<defs>
<clipPath id="clip0">
<rect width="91" height="91" fill="white"/>
</clipPath>
</defs>
</svg>
