<svg width="42" height="42" viewBox="0 0 42 42" fill="none" xmlns="http://www.w3.org/2000/svg">
<path d="M0 5C0 2.23858 2.23858 0 5 0H37C39.7614 0 42 2.23858 42 5V37C42 39.7614 39.7614 42 37 42H5C2.23858 42 0 39.7614 0 37V5Z" fill="#E8F2FC"/>
<path d="M25.2137 9H16.7864C15.1227 9 13.7864 10.3364 13.7864 12V30C13.7864 31.6636 15.15 33 16.7864 33H25.2137C26.8773 33 28.2137 31.6636 28.2137 30V12C28.2137 10.3364 26.8773 9 25.2137 9ZM21.0137 31.0636C20.25 31.0636 19.65 30.4636 19.65 29.7C19.65 28.9364 20.25 28.3364 21.0137 28.3364C21.7773 28.3364 22.3773 28.9364 22.3773 29.7C22.3773 30.4636 21.7773 31.0636 21.0137 31.0636ZM26.85 26.8909H15.15V13.0091H26.85V26.8909Z" fill="#4078FF"/>
</svg>
